G75*
%MOIN*%
%OFA0B0*%
%FSLAX25Y25*%
%IPPOS*%
%LPD*%
%AMOC8*
5,1,8,0,0,1.08239X$1,22.5*
%
%ADD10C,0.00600*%
%ADD11R,0.01969X0.11811*%
%ADD12R,0.03937X0.01969*%
%ADD13R,0.01969X0.01969*%
%ADD14R,0.01969X0.25591*%
%ADD15C,0.00197*%
D10*
X0040901Y0056177D02*
X0040901Y0363264D01*
X0040908Y0363835D01*
X0040929Y0364405D01*
X0040963Y0364975D01*
X0041011Y0365544D01*
X0041073Y0366111D01*
X0041149Y0366677D01*
X0041238Y0367241D01*
X0041341Y0367802D01*
X0041458Y0368361D01*
X0041587Y0368917D01*
X0041731Y0369470D01*
X0041887Y0370019D01*
X0042057Y0370564D01*
X0042240Y0371104D01*
X0042436Y0371640D01*
X0042645Y0372172D01*
X0042867Y0372698D01*
X0043101Y0373218D01*
X0043348Y0373733D01*
X0043607Y0374242D01*
X0043878Y0374744D01*
X0044162Y0375239D01*
X0044457Y0375728D01*
X0044764Y0376209D01*
X0045082Y0376683D01*
X0045412Y0377149D01*
X0045753Y0377606D01*
X0046106Y0378056D01*
X0046468Y0378496D01*
X0046842Y0378928D01*
X0047225Y0379351D01*
X0047619Y0379764D01*
X0048023Y0380168D01*
X0048436Y0380562D01*
X0048859Y0380945D01*
X0049291Y0381319D01*
X0049731Y0381681D01*
X0050181Y0382034D01*
X0050638Y0382375D01*
X0051104Y0382705D01*
X0051578Y0383023D01*
X0052059Y0383330D01*
X0052548Y0383625D01*
X0053043Y0383909D01*
X0053545Y0384180D01*
X0054054Y0384439D01*
X0054569Y0384686D01*
X0055089Y0384920D01*
X0055615Y0385142D01*
X0056147Y0385351D01*
X0056683Y0385547D01*
X0057223Y0385730D01*
X0057768Y0385900D01*
X0058317Y0386056D01*
X0058870Y0386200D01*
X0059426Y0386329D01*
X0059985Y0386446D01*
X0060546Y0386549D01*
X0061110Y0386638D01*
X0061676Y0386714D01*
X0062243Y0386776D01*
X0062812Y0386824D01*
X0063382Y0386858D01*
X0063952Y0386879D01*
X0064523Y0386886D01*
X0371610Y0386886D01*
X0372181Y0386879D01*
X0372751Y0386858D01*
X0373321Y0386824D01*
X0373890Y0386776D01*
X0374457Y0386714D01*
X0375023Y0386638D01*
X0375587Y0386549D01*
X0376148Y0386446D01*
X0376707Y0386329D01*
X0377263Y0386200D01*
X0377816Y0386056D01*
X0378365Y0385900D01*
X0378910Y0385730D01*
X0379450Y0385547D01*
X0379986Y0385351D01*
X0380518Y0385142D01*
X0381044Y0384920D01*
X0381564Y0384686D01*
X0382079Y0384439D01*
X0382588Y0384180D01*
X0383090Y0383909D01*
X0383585Y0383625D01*
X0384074Y0383330D01*
X0384555Y0383023D01*
X0385029Y0382705D01*
X0385495Y0382375D01*
X0385952Y0382034D01*
X0386402Y0381681D01*
X0386842Y0381319D01*
X0387274Y0380945D01*
X0387697Y0380562D01*
X0388110Y0380168D01*
X0388514Y0379764D01*
X0388908Y0379351D01*
X0389291Y0378928D01*
X0389665Y0378496D01*
X0390027Y0378056D01*
X0390380Y0377606D01*
X0390721Y0377149D01*
X0391051Y0376683D01*
X0391369Y0376209D01*
X0391676Y0375728D01*
X0391971Y0375239D01*
X0392255Y0374744D01*
X0392526Y0374242D01*
X0392785Y0373733D01*
X0393032Y0373218D01*
X0393266Y0372698D01*
X0393488Y0372172D01*
X0393697Y0371640D01*
X0393893Y0371104D01*
X0394076Y0370564D01*
X0394246Y0370019D01*
X0394402Y0369470D01*
X0394546Y0368917D01*
X0394675Y0368361D01*
X0394792Y0367802D01*
X0394895Y0367241D01*
X0394984Y0366677D01*
X0395060Y0366111D01*
X0395122Y0365544D01*
X0395170Y0364975D01*
X0395204Y0364405D01*
X0395225Y0363835D01*
X0395232Y0363264D01*
X0395232Y0056177D01*
X0395225Y0055606D01*
X0395204Y0055036D01*
X0395170Y0054466D01*
X0395122Y0053897D01*
X0395060Y0053330D01*
X0394984Y0052764D01*
X0394895Y0052200D01*
X0394792Y0051639D01*
X0394675Y0051080D01*
X0394546Y0050524D01*
X0394402Y0049971D01*
X0394246Y0049422D01*
X0394076Y0048877D01*
X0393893Y0048337D01*
X0393697Y0047801D01*
X0393488Y0047269D01*
X0393266Y0046743D01*
X0393032Y0046223D01*
X0392785Y0045708D01*
X0392526Y0045199D01*
X0392255Y0044697D01*
X0391971Y0044202D01*
X0391676Y0043713D01*
X0391369Y0043232D01*
X0391051Y0042758D01*
X0390721Y0042292D01*
X0390380Y0041835D01*
X0390027Y0041385D01*
X0389665Y0040945D01*
X0389291Y0040513D01*
X0388908Y0040090D01*
X0388514Y0039677D01*
X0388110Y0039273D01*
X0387697Y0038879D01*
X0387274Y0038496D01*
X0386842Y0038122D01*
X0386402Y0037760D01*
X0385952Y0037407D01*
X0385495Y0037066D01*
X0385029Y0036736D01*
X0384555Y0036418D01*
X0384074Y0036111D01*
X0383585Y0035816D01*
X0383090Y0035532D01*
X0382588Y0035261D01*
X0382079Y0035002D01*
X0381564Y0034755D01*
X0381044Y0034521D01*
X0380518Y0034299D01*
X0379986Y0034090D01*
X0379450Y0033894D01*
X0378910Y0033711D01*
X0378365Y0033541D01*
X0377816Y0033385D01*
X0377263Y0033241D01*
X0376707Y0033112D01*
X0376148Y0032995D01*
X0375587Y0032892D01*
X0375023Y0032803D01*
X0374457Y0032727D01*
X0373890Y0032665D01*
X0373321Y0032617D01*
X0372751Y0032583D01*
X0372181Y0032562D01*
X0371610Y0032555D01*
X0064523Y0032555D01*
X0080271Y0036492D02*
X0355861Y0036492D01*
X0355861Y0229406D01*
X0355765Y0230637D01*
X0355476Y0231839D01*
X0355003Y0232980D01*
X0354358Y0234034D01*
X0353555Y0234973D01*
X0352616Y0235776D01*
X0351562Y0236421D01*
X0350421Y0236894D01*
X0349219Y0237183D01*
X0347987Y0237280D01*
X0088145Y0237280D01*
X0086913Y0237183D01*
X0085712Y0236894D01*
X0084570Y0236421D01*
X0083517Y0235776D01*
X0082577Y0234973D01*
X0081775Y0234034D01*
X0081129Y0232980D01*
X0080656Y0231839D01*
X0080368Y0230637D01*
X0080271Y0229406D01*
X0080271Y0036492D01*
X0080271Y0036745D02*
X0355861Y0036745D01*
X0355861Y0037343D02*
X0080271Y0037343D01*
X0080271Y0037942D02*
X0355861Y0037942D01*
X0355861Y0038540D02*
X0080271Y0038540D01*
X0080271Y0039139D02*
X0355861Y0039139D01*
X0355861Y0039737D02*
X0080271Y0039737D01*
X0080271Y0040336D02*
X0355861Y0040336D01*
X0355861Y0040934D02*
X0080271Y0040934D01*
X0080271Y0041533D02*
X0355861Y0041533D01*
X0355861Y0042131D02*
X0080271Y0042131D01*
X0080271Y0042730D02*
X0355861Y0042730D01*
X0355861Y0043328D02*
X0080271Y0043328D01*
X0080271Y0043927D02*
X0355861Y0043927D01*
X0355861Y0044525D02*
X0080271Y0044525D01*
X0080271Y0045124D02*
X0355861Y0045124D01*
X0355861Y0045722D02*
X0080271Y0045722D01*
X0080271Y0046321D02*
X0355861Y0046321D01*
X0355861Y0046919D02*
X0080271Y0046919D01*
X0080271Y0047518D02*
X0355861Y0047518D01*
X0355861Y0048116D02*
X0080271Y0048116D01*
X0080271Y0048715D02*
X0355861Y0048715D01*
X0355861Y0049313D02*
X0080271Y0049313D01*
X0080271Y0049912D02*
X0355861Y0049912D01*
X0355861Y0050510D02*
X0080271Y0050510D01*
X0080271Y0051109D02*
X0355861Y0051109D01*
X0355861Y0051707D02*
X0080271Y0051707D01*
X0080271Y0052306D02*
X0355861Y0052306D01*
X0355861Y0052905D02*
X0080271Y0052905D01*
X0080271Y0053503D02*
X0355861Y0053503D01*
X0355861Y0054102D02*
X0080271Y0054102D01*
X0080271Y0054700D02*
X0355861Y0054700D01*
X0355861Y0055299D02*
X0080271Y0055299D01*
X0080271Y0055897D02*
X0355861Y0055897D01*
X0355861Y0056496D02*
X0080271Y0056496D01*
X0080271Y0057094D02*
X0355861Y0057094D01*
X0355861Y0057693D02*
X0080271Y0057693D01*
X0080271Y0058291D02*
X0355861Y0058291D01*
X0355861Y0058890D02*
X0080271Y0058890D01*
X0080271Y0059488D02*
X0355861Y0059488D01*
X0355861Y0060087D02*
X0080271Y0060087D01*
X0080271Y0060685D02*
X0355861Y0060685D01*
X0355861Y0061284D02*
X0080271Y0061284D01*
X0080271Y0061882D02*
X0355861Y0061882D01*
X0355861Y0062481D02*
X0080271Y0062481D01*
X0080271Y0063079D02*
X0355861Y0063079D01*
X0355861Y0063678D02*
X0080271Y0063678D01*
X0080271Y0064276D02*
X0355861Y0064276D01*
X0355861Y0064875D02*
X0080271Y0064875D01*
X0080271Y0065473D02*
X0355861Y0065473D01*
X0355861Y0066072D02*
X0080271Y0066072D01*
X0080271Y0066670D02*
X0355861Y0066670D01*
X0355861Y0067269D02*
X0080271Y0067269D01*
X0080271Y0067867D02*
X0355861Y0067867D01*
X0355861Y0068466D02*
X0080271Y0068466D01*
X0080271Y0069064D02*
X0355861Y0069064D01*
X0355861Y0069663D02*
X0080271Y0069663D01*
X0080271Y0070261D02*
X0355861Y0070261D01*
X0355861Y0070860D02*
X0080271Y0070860D01*
X0080271Y0071458D02*
X0355861Y0071458D01*
X0355861Y0072057D02*
X0080271Y0072057D01*
X0080271Y0072655D02*
X0355861Y0072655D01*
X0355861Y0073254D02*
X0080271Y0073254D01*
X0080271Y0073852D02*
X0355861Y0073852D01*
X0355861Y0074451D02*
X0080271Y0074451D01*
X0080271Y0075049D02*
X0355861Y0075049D01*
X0355861Y0075648D02*
X0080271Y0075648D01*
X0080271Y0076246D02*
X0355861Y0076246D01*
X0355861Y0076845D02*
X0080271Y0076845D01*
X0080271Y0077443D02*
X0355861Y0077443D01*
X0355861Y0078042D02*
X0080271Y0078042D01*
X0080271Y0078640D02*
X0355861Y0078640D01*
X0355861Y0079239D02*
X0080271Y0079239D01*
X0080271Y0079838D02*
X0355861Y0079838D01*
X0355861Y0080436D02*
X0080271Y0080436D01*
X0080271Y0081035D02*
X0355861Y0081035D01*
X0355861Y0081633D02*
X0080271Y0081633D01*
X0080271Y0082232D02*
X0355861Y0082232D01*
X0355861Y0082830D02*
X0080271Y0082830D01*
X0080271Y0083429D02*
X0355861Y0083429D01*
X0355861Y0084027D02*
X0080271Y0084027D01*
X0080271Y0084626D02*
X0355861Y0084626D01*
X0355861Y0085224D02*
X0080271Y0085224D01*
X0080271Y0085823D02*
X0355861Y0085823D01*
X0355861Y0086421D02*
X0080271Y0086421D01*
X0080271Y0087020D02*
X0355861Y0087020D01*
X0355861Y0087618D02*
X0080271Y0087618D01*
X0080271Y0088217D02*
X0355861Y0088217D01*
X0355861Y0088815D02*
X0080271Y0088815D01*
X0080271Y0089414D02*
X0355861Y0089414D01*
X0355861Y0090012D02*
X0080271Y0090012D01*
X0080271Y0090611D02*
X0355861Y0090611D01*
X0355861Y0091209D02*
X0080271Y0091209D01*
X0080271Y0091808D02*
X0355861Y0091808D01*
X0355861Y0092406D02*
X0080271Y0092406D01*
X0080271Y0093005D02*
X0355861Y0093005D01*
X0355861Y0093603D02*
X0080271Y0093603D01*
X0080271Y0094202D02*
X0355861Y0094202D01*
X0355861Y0094800D02*
X0080271Y0094800D01*
X0080271Y0095399D02*
X0355861Y0095399D01*
X0355861Y0095997D02*
X0080271Y0095997D01*
X0080271Y0096596D02*
X0355861Y0096596D01*
X0355861Y0097194D02*
X0080271Y0097194D01*
X0080271Y0097793D02*
X0355861Y0097793D01*
X0355861Y0098391D02*
X0080271Y0098391D01*
X0080271Y0098990D02*
X0355861Y0098990D01*
X0355861Y0099588D02*
X0080271Y0099588D01*
X0080271Y0100187D02*
X0355861Y0100187D01*
X0355861Y0100785D02*
X0080271Y0100785D01*
X0080271Y0101384D02*
X0355861Y0101384D01*
X0355861Y0101982D02*
X0080271Y0101982D01*
X0080271Y0102581D02*
X0355861Y0102581D01*
X0355861Y0103179D02*
X0080271Y0103179D01*
X0080271Y0103778D02*
X0355861Y0103778D01*
X0355861Y0104376D02*
X0080271Y0104376D01*
X0080271Y0104975D02*
X0355861Y0104975D01*
X0355861Y0105573D02*
X0080271Y0105573D01*
X0080271Y0106172D02*
X0355861Y0106172D01*
X0355861Y0106771D02*
X0080271Y0106771D01*
X0080271Y0107369D02*
X0355861Y0107369D01*
X0355861Y0107968D02*
X0080271Y0107968D01*
X0080271Y0108566D02*
X0355861Y0108566D01*
X0355861Y0109165D02*
X0080271Y0109165D01*
X0080271Y0109763D02*
X0355861Y0109763D01*
X0355861Y0110362D02*
X0080271Y0110362D01*
X0080271Y0110960D02*
X0355861Y0110960D01*
X0355861Y0111559D02*
X0080271Y0111559D01*
X0080271Y0112157D02*
X0355861Y0112157D01*
X0355861Y0112756D02*
X0080271Y0112756D01*
X0080271Y0113354D02*
X0355861Y0113354D01*
X0355861Y0113953D02*
X0080271Y0113953D01*
X0080271Y0114551D02*
X0355861Y0114551D01*
X0355861Y0115150D02*
X0080271Y0115150D01*
X0080271Y0115748D02*
X0355861Y0115748D01*
X0355861Y0116347D02*
X0080271Y0116347D01*
X0080271Y0116945D02*
X0355861Y0116945D01*
X0355861Y0117544D02*
X0080271Y0117544D01*
X0080271Y0118142D02*
X0355861Y0118142D01*
X0355861Y0118741D02*
X0080271Y0118741D01*
X0080271Y0119339D02*
X0355861Y0119339D01*
X0355861Y0119938D02*
X0080271Y0119938D01*
X0080271Y0120536D02*
X0355861Y0120536D01*
X0355861Y0121135D02*
X0080271Y0121135D01*
X0080271Y0121733D02*
X0355861Y0121733D01*
X0355861Y0122332D02*
X0080271Y0122332D01*
X0080271Y0122930D02*
X0355861Y0122930D01*
X0355861Y0123529D02*
X0080271Y0123529D01*
X0080271Y0124127D02*
X0355861Y0124127D01*
X0355861Y0124726D02*
X0080271Y0124726D01*
X0080271Y0125324D02*
X0355861Y0125324D01*
X0355861Y0125923D02*
X0080271Y0125923D01*
X0080271Y0126521D02*
X0355861Y0126521D01*
X0355861Y0127120D02*
X0080271Y0127120D01*
X0080271Y0127718D02*
X0355861Y0127718D01*
X0355861Y0128317D02*
X0080271Y0128317D01*
X0080271Y0128915D02*
X0355861Y0128915D01*
X0355861Y0129514D02*
X0080271Y0129514D01*
X0080271Y0130112D02*
X0355861Y0130112D01*
X0355861Y0130711D02*
X0080271Y0130711D01*
X0080271Y0131309D02*
X0355861Y0131309D01*
X0355861Y0131908D02*
X0080271Y0131908D01*
X0080271Y0132507D02*
X0355861Y0132507D01*
X0355861Y0133105D02*
X0080271Y0133105D01*
X0080271Y0133704D02*
X0355861Y0133704D01*
X0355861Y0134302D02*
X0080271Y0134302D01*
X0080271Y0134901D02*
X0355861Y0134901D01*
X0355861Y0135499D02*
X0080271Y0135499D01*
X0080271Y0136098D02*
X0355861Y0136098D01*
X0355861Y0136696D02*
X0080271Y0136696D01*
X0080271Y0137295D02*
X0355861Y0137295D01*
X0355861Y0137893D02*
X0080271Y0137893D01*
X0080271Y0138492D02*
X0355861Y0138492D01*
X0355861Y0139090D02*
X0080271Y0139090D01*
X0080271Y0139689D02*
X0355861Y0139689D01*
X0355861Y0140287D02*
X0080271Y0140287D01*
X0080271Y0140886D02*
X0355861Y0140886D01*
X0355861Y0141484D02*
X0080271Y0141484D01*
X0080271Y0142083D02*
X0355861Y0142083D01*
X0355861Y0142681D02*
X0080271Y0142681D01*
X0080271Y0143280D02*
X0355861Y0143280D01*
X0355861Y0143878D02*
X0080271Y0143878D01*
X0080271Y0144477D02*
X0355861Y0144477D01*
X0355861Y0145075D02*
X0080271Y0145075D01*
X0080271Y0145674D02*
X0355861Y0145674D01*
X0355861Y0146272D02*
X0080271Y0146272D01*
X0080271Y0146871D02*
X0355861Y0146871D01*
X0355861Y0147469D02*
X0080271Y0147469D01*
X0080271Y0148068D02*
X0355861Y0148068D01*
X0355861Y0148666D02*
X0080271Y0148666D01*
X0080271Y0149265D02*
X0355861Y0149265D01*
X0355861Y0149863D02*
X0080271Y0149863D01*
X0080271Y0150462D02*
X0355861Y0150462D01*
X0355861Y0151060D02*
X0080271Y0151060D01*
X0080271Y0151659D02*
X0355861Y0151659D01*
X0355861Y0152257D02*
X0080271Y0152257D01*
X0080271Y0152856D02*
X0355861Y0152856D01*
X0355861Y0153454D02*
X0080271Y0153454D01*
X0080271Y0154053D02*
X0355861Y0154053D01*
X0355861Y0154651D02*
X0080271Y0154651D01*
X0080271Y0155250D02*
X0355861Y0155250D01*
X0355861Y0155848D02*
X0080271Y0155848D01*
X0080271Y0156447D02*
X0355861Y0156447D01*
X0355861Y0157045D02*
X0080271Y0157045D01*
X0080271Y0157644D02*
X0355861Y0157644D01*
X0355861Y0158242D02*
X0080271Y0158242D01*
X0080271Y0158841D02*
X0355861Y0158841D01*
X0355861Y0159440D02*
X0080271Y0159440D01*
X0080271Y0160038D02*
X0355861Y0160038D01*
X0355861Y0160637D02*
X0080271Y0160637D01*
X0080271Y0161235D02*
X0355861Y0161235D01*
X0355861Y0161834D02*
X0080271Y0161834D01*
X0080271Y0162432D02*
X0355861Y0162432D01*
X0355861Y0163031D02*
X0080271Y0163031D01*
X0080271Y0163629D02*
X0355861Y0163629D01*
X0355861Y0164228D02*
X0080271Y0164228D01*
X0080271Y0164826D02*
X0355861Y0164826D01*
X0355861Y0165425D02*
X0080271Y0165425D01*
X0080271Y0166023D02*
X0355861Y0166023D01*
X0355861Y0166622D02*
X0080271Y0166622D01*
X0080271Y0167220D02*
X0355861Y0167220D01*
X0355861Y0167819D02*
X0080271Y0167819D01*
X0080271Y0168417D02*
X0355861Y0168417D01*
X0355861Y0169016D02*
X0080271Y0169016D01*
X0080271Y0169614D02*
X0355861Y0169614D01*
X0355861Y0170213D02*
X0080271Y0170213D01*
X0080271Y0170811D02*
X0355861Y0170811D01*
X0355861Y0171410D02*
X0080271Y0171410D01*
X0080271Y0172008D02*
X0355861Y0172008D01*
X0355861Y0172607D02*
X0080271Y0172607D01*
X0080271Y0173205D02*
X0355861Y0173205D01*
X0355861Y0173804D02*
X0080271Y0173804D01*
X0080271Y0174402D02*
X0355861Y0174402D01*
X0355861Y0175001D02*
X0080271Y0175001D01*
X0080271Y0175599D02*
X0355861Y0175599D01*
X0355861Y0176198D02*
X0080271Y0176198D01*
X0080271Y0176796D02*
X0355861Y0176796D01*
X0355861Y0177395D02*
X0080271Y0177395D01*
X0080271Y0177993D02*
X0355861Y0177993D01*
X0355861Y0178592D02*
X0080271Y0178592D01*
X0080271Y0179190D02*
X0355861Y0179190D01*
X0355861Y0179789D02*
X0080271Y0179789D01*
X0080271Y0180387D02*
X0355861Y0180387D01*
X0355861Y0180986D02*
X0080271Y0180986D01*
X0080271Y0181584D02*
X0355861Y0181584D01*
X0355861Y0182183D02*
X0080271Y0182183D01*
X0080271Y0182781D02*
X0355861Y0182781D01*
X0355861Y0183380D02*
X0080271Y0183380D01*
X0080271Y0183978D02*
X0355861Y0183978D01*
X0355861Y0184577D02*
X0080271Y0184577D01*
X0080271Y0185176D02*
X0355861Y0185176D01*
X0355861Y0185774D02*
X0080271Y0185774D01*
X0080271Y0186373D02*
X0355861Y0186373D01*
X0355861Y0186971D02*
X0080271Y0186971D01*
X0080271Y0187570D02*
X0355861Y0187570D01*
X0355861Y0188168D02*
X0080271Y0188168D01*
X0080271Y0188767D02*
X0355861Y0188767D01*
X0355861Y0189365D02*
X0080271Y0189365D01*
X0080271Y0189964D02*
X0355861Y0189964D01*
X0355861Y0190562D02*
X0080271Y0190562D01*
X0080271Y0191161D02*
X0355861Y0191161D01*
X0355861Y0191759D02*
X0080271Y0191759D01*
X0080271Y0192358D02*
X0355861Y0192358D01*
X0355861Y0192956D02*
X0080271Y0192956D01*
X0080271Y0193555D02*
X0355861Y0193555D01*
X0355861Y0194153D02*
X0080271Y0194153D01*
X0080271Y0194752D02*
X0355861Y0194752D01*
X0355861Y0195350D02*
X0080271Y0195350D01*
X0080271Y0195949D02*
X0355861Y0195949D01*
X0355861Y0196547D02*
X0080271Y0196547D01*
X0080271Y0197146D02*
X0355861Y0197146D01*
X0355861Y0197744D02*
X0080271Y0197744D01*
X0080271Y0198343D02*
X0355861Y0198343D01*
X0355861Y0198941D02*
X0080271Y0198941D01*
X0080271Y0199540D02*
X0355861Y0199540D01*
X0355861Y0200138D02*
X0080271Y0200138D01*
X0080271Y0200737D02*
X0355861Y0200737D01*
X0355861Y0201335D02*
X0080271Y0201335D01*
X0080271Y0201934D02*
X0355861Y0201934D01*
X0355861Y0202532D02*
X0080271Y0202532D01*
X0080271Y0203131D02*
X0355861Y0203131D01*
X0355861Y0203729D02*
X0080271Y0203729D01*
X0080271Y0204328D02*
X0355861Y0204328D01*
X0355861Y0204926D02*
X0080271Y0204926D01*
X0080271Y0205525D02*
X0355861Y0205525D01*
X0355861Y0206123D02*
X0080271Y0206123D01*
X0080271Y0206722D02*
X0355861Y0206722D01*
X0355861Y0207320D02*
X0080271Y0207320D01*
X0080271Y0207919D02*
X0355861Y0207919D01*
X0355861Y0208517D02*
X0080271Y0208517D01*
X0080271Y0209116D02*
X0355861Y0209116D01*
X0355861Y0209714D02*
X0080271Y0209714D01*
X0080271Y0210313D02*
X0355861Y0210313D01*
X0355861Y0210911D02*
X0080271Y0210911D01*
X0080271Y0211510D02*
X0355861Y0211510D01*
X0355861Y0212109D02*
X0080271Y0212109D01*
X0080271Y0212707D02*
X0355861Y0212707D01*
X0355861Y0213306D02*
X0080271Y0213306D01*
X0080271Y0213904D02*
X0355861Y0213904D01*
X0355861Y0214503D02*
X0080271Y0214503D01*
X0080271Y0215101D02*
X0355861Y0215101D01*
X0355861Y0215700D02*
X0080271Y0215700D01*
X0080271Y0216298D02*
X0355861Y0216298D01*
X0355861Y0216897D02*
X0080271Y0216897D01*
X0080271Y0217495D02*
X0355861Y0217495D01*
X0355861Y0218094D02*
X0080271Y0218094D01*
X0080271Y0218692D02*
X0355861Y0218692D01*
X0355861Y0219291D02*
X0080271Y0219291D01*
X0080271Y0219889D02*
X0355861Y0219889D01*
X0355861Y0220488D02*
X0080271Y0220488D01*
X0080271Y0221086D02*
X0355861Y0221086D01*
X0355861Y0221685D02*
X0080271Y0221685D01*
X0080271Y0222283D02*
X0355861Y0222283D01*
X0355861Y0222882D02*
X0080271Y0222882D01*
X0080271Y0223480D02*
X0355861Y0223480D01*
X0355861Y0224079D02*
X0080271Y0224079D01*
X0080271Y0224677D02*
X0355861Y0224677D01*
X0355861Y0225276D02*
X0080271Y0225276D01*
X0080271Y0225874D02*
X0355861Y0225874D01*
X0355861Y0226473D02*
X0080271Y0226473D01*
X0080271Y0227071D02*
X0355861Y0227071D01*
X0355861Y0227670D02*
X0080271Y0227670D01*
X0080271Y0228268D02*
X0355861Y0228268D01*
X0355861Y0228867D02*
X0080271Y0228867D01*
X0080276Y0229465D02*
X0355857Y0229465D01*
X0355810Y0230064D02*
X0080323Y0230064D01*
X0080374Y0230662D02*
X0355759Y0230662D01*
X0355615Y0231261D02*
X0080518Y0231261D01*
X0080665Y0231859D02*
X0355468Y0231859D01*
X0355220Y0232458D02*
X0080913Y0232458D01*
X0081176Y0233056D02*
X0354957Y0233056D01*
X0354590Y0233655D02*
X0081543Y0233655D01*
X0081962Y0234253D02*
X0354170Y0234253D01*
X0353659Y0234852D02*
X0082474Y0234852D01*
X0083136Y0235450D02*
X0352997Y0235450D01*
X0352170Y0236049D02*
X0083963Y0236049D01*
X0085116Y0236647D02*
X0351016Y0236647D01*
X0348414Y0237246D02*
X0087719Y0237246D01*
X0040901Y0056177D02*
X0040908Y0055606D01*
X0040929Y0055036D01*
X0040963Y0054466D01*
X0041011Y0053897D01*
X0041073Y0053330D01*
X0041149Y0052764D01*
X0041238Y0052200D01*
X0041341Y0051639D01*
X0041458Y0051080D01*
X0041587Y0050524D01*
X0041731Y0049971D01*
X0041887Y0049422D01*
X0042057Y0048877D01*
X0042240Y0048337D01*
X0042436Y0047801D01*
X0042645Y0047269D01*
X0042867Y0046743D01*
X0043101Y0046223D01*
X0043348Y0045708D01*
X0043607Y0045199D01*
X0043878Y0044697D01*
X0044162Y0044202D01*
X0044457Y0043713D01*
X0044764Y0043232D01*
X0045082Y0042758D01*
X0045412Y0042292D01*
X0045753Y0041835D01*
X0046106Y0041385D01*
X0046468Y0040945D01*
X0046842Y0040513D01*
X0047225Y0040090D01*
X0047619Y0039677D01*
X0048023Y0039273D01*
X0048436Y0038879D01*
X0048859Y0038496D01*
X0049291Y0038122D01*
X0049731Y0037760D01*
X0050181Y0037407D01*
X0050638Y0037066D01*
X0051104Y0036736D01*
X0051578Y0036418D01*
X0052059Y0036111D01*
X0052548Y0035816D01*
X0053043Y0035532D01*
X0053545Y0035261D01*
X0054054Y0035002D01*
X0054569Y0034755D01*
X0055089Y0034521D01*
X0055615Y0034299D01*
X0056147Y0034090D01*
X0056683Y0033894D01*
X0057223Y0033711D01*
X0057768Y0033541D01*
X0058317Y0033385D01*
X0058870Y0033241D01*
X0059426Y0033112D01*
X0059985Y0032995D01*
X0060546Y0032892D01*
X0061110Y0032803D01*
X0061676Y0032727D01*
X0062243Y0032665D01*
X0062812Y0032617D01*
X0063382Y0032583D01*
X0063952Y0032562D01*
X0064523Y0032555D01*
D11*
X0347003Y0337673D03*
X0350940Y0337673D03*
X0350940Y0351453D03*
X0347003Y0351453D03*
D12*
X0349956Y0346531D03*
D13*
X0348972Y0342594D03*
D14*
X0354877Y0344563D03*
X0343066Y0344563D03*
D15*
X0357985Y0331744D02*
X0358109Y0333512D01*
X0358108Y0333511D02*
X0358377Y0333498D01*
X0358645Y0333492D01*
X0358914Y0333492D01*
X0359183Y0333499D01*
X0359451Y0333512D01*
X0359719Y0333532D01*
X0359987Y0333558D01*
X0360253Y0333591D01*
X0360519Y0333631D01*
X0360784Y0333677D01*
X0361048Y0333730D01*
X0361310Y0333789D01*
X0361570Y0333854D01*
X0361829Y0333926D01*
X0362087Y0334004D01*
X0362342Y0334088D01*
X0362595Y0334179D01*
X0362845Y0334276D01*
X0363094Y0334379D01*
X0363339Y0334488D01*
X0363582Y0334603D01*
X0363822Y0334724D01*
X0364059Y0334850D01*
X0364293Y0334983D01*
X0364523Y0335121D01*
X0364750Y0335265D01*
X0364974Y0335414D01*
X0365194Y0335569D01*
X0365409Y0335729D01*
X0365621Y0335895D01*
X0365829Y0336065D01*
X0366032Y0336241D01*
X0366231Y0336422D01*
X0366426Y0336607D01*
X0366616Y0336797D01*
X0366801Y0336992D01*
X0366982Y0337191D01*
X0367157Y0337394D01*
X0367328Y0337602D01*
X0367493Y0337814D01*
X0367653Y0338030D01*
X0367808Y0338250D01*
X0367957Y0338473D01*
X0368101Y0338700D01*
X0368239Y0338931D01*
X0368371Y0339165D01*
X0368498Y0339402D01*
X0368619Y0339642D01*
X0368734Y0339885D01*
X0368843Y0340131D01*
X0368945Y0340379D01*
X0369042Y0340630D01*
X0369133Y0340883D01*
X0369217Y0341138D01*
X0369295Y0341395D01*
X0369366Y0341654D01*
X0369432Y0341915D01*
X0369491Y0342177D01*
X0369543Y0342441D01*
X0369589Y0342705D01*
X0369628Y0342971D01*
X0369661Y0343238D01*
X0369688Y0343505D01*
X0369707Y0343774D01*
X0369721Y0344042D01*
X0369727Y0344311D01*
X0369727Y0344579D01*
X0369721Y0344848D01*
X0369707Y0345116D01*
X0369688Y0345385D01*
X0369661Y0345652D01*
X0369628Y0345919D01*
X0369589Y0346185D01*
X0369543Y0346449D01*
X0369491Y0346713D01*
X0369432Y0346975D01*
X0369366Y0347236D01*
X0369295Y0347495D01*
X0369217Y0347752D01*
X0369133Y0348007D01*
X0369042Y0348260D01*
X0368945Y0348511D01*
X0368843Y0348759D01*
X0368734Y0349005D01*
X0368619Y0349248D01*
X0368498Y0349488D01*
X0368371Y0349725D01*
X0368239Y0349959D01*
X0368101Y0350190D01*
X0367957Y0350417D01*
X0367808Y0350640D01*
X0367653Y0350860D01*
X0367493Y0351076D01*
X0367328Y0351288D01*
X0367157Y0351496D01*
X0366982Y0351699D01*
X0366801Y0351898D01*
X0366616Y0352093D01*
X0366426Y0352283D01*
X0366231Y0352468D01*
X0366032Y0352649D01*
X0365829Y0352825D01*
X0365621Y0352995D01*
X0365409Y0353161D01*
X0365194Y0353321D01*
X0364974Y0353476D01*
X0364750Y0353625D01*
X0364523Y0353769D01*
X0364293Y0353907D01*
X0364059Y0354040D01*
X0363822Y0354166D01*
X0363582Y0354287D01*
X0363339Y0354402D01*
X0363094Y0354511D01*
X0362845Y0354614D01*
X0362595Y0354711D01*
X0362342Y0354802D01*
X0362087Y0354886D01*
X0361829Y0354964D01*
X0361570Y0355036D01*
X0361310Y0355101D01*
X0361048Y0355160D01*
X0360784Y0355213D01*
X0360519Y0355259D01*
X0360253Y0355299D01*
X0359987Y0355332D01*
X0359719Y0355358D01*
X0359451Y0355378D01*
X0359183Y0355391D01*
X0358914Y0355398D01*
X0358645Y0355398D01*
X0358377Y0355392D01*
X0358108Y0355379D01*
X0357985Y0357146D01*
X0358294Y0357162D01*
X0358604Y0357170D01*
X0358914Y0357170D01*
X0359225Y0357163D01*
X0359534Y0357148D01*
X0359844Y0357126D01*
X0360152Y0357096D01*
X0360460Y0357059D01*
X0360767Y0357014D01*
X0361073Y0356962D01*
X0361377Y0356902D01*
X0361680Y0356835D01*
X0361981Y0356760D01*
X0362280Y0356678D01*
X0362577Y0356589D01*
X0362872Y0356493D01*
X0363164Y0356390D01*
X0363454Y0356279D01*
X0363741Y0356162D01*
X0364025Y0356037D01*
X0364306Y0355906D01*
X0364584Y0355767D01*
X0364858Y0355622D01*
X0365129Y0355471D01*
X0365395Y0355313D01*
X0365658Y0355148D01*
X0365917Y0354977D01*
X0366172Y0354800D01*
X0366422Y0354617D01*
X0366667Y0354427D01*
X0366908Y0354232D01*
X0367144Y0354031D01*
X0367375Y0353824D01*
X0367601Y0353612D01*
X0367822Y0353394D01*
X0368038Y0353171D01*
X0368247Y0352942D01*
X0368452Y0352709D01*
X0368650Y0352471D01*
X0368843Y0352228D01*
X0369030Y0351980D01*
X0369210Y0351728D01*
X0369384Y0351471D01*
X0369553Y0351211D01*
X0369714Y0350946D01*
X0369869Y0350677D01*
X0370018Y0350405D01*
X0370160Y0350129D01*
X0370295Y0349850D01*
X0370423Y0349568D01*
X0370545Y0349283D01*
X0370659Y0348994D01*
X0370766Y0348703D01*
X0370867Y0348410D01*
X0370960Y0348114D01*
X0371045Y0347816D01*
X0371124Y0347516D01*
X0371195Y0347214D01*
X0371259Y0346910D01*
X0371315Y0346606D01*
X0371364Y0346299D01*
X0371406Y0345992D01*
X0371440Y0345684D01*
X0371466Y0345375D01*
X0371485Y0345065D01*
X0371496Y0344755D01*
X0371500Y0344445D01*
X0371496Y0344135D01*
X0371485Y0343825D01*
X0371466Y0343515D01*
X0371440Y0343206D01*
X0371406Y0342898D01*
X0371364Y0342591D01*
X0371315Y0342284D01*
X0371259Y0341980D01*
X0371195Y0341676D01*
X0371124Y0341374D01*
X0371045Y0341074D01*
X0370960Y0340776D01*
X0370867Y0340480D01*
X0370766Y0340187D01*
X0370659Y0339896D01*
X0370545Y0339607D01*
X0370423Y0339322D01*
X0370295Y0339040D01*
X0370160Y0338761D01*
X0370018Y0338485D01*
X0369869Y0338213D01*
X0369714Y0337944D01*
X0369553Y0337679D01*
X0369384Y0337419D01*
X0369210Y0337162D01*
X0369030Y0336910D01*
X0368843Y0336662D01*
X0368650Y0336419D01*
X0368452Y0336181D01*
X0368247Y0335948D01*
X0368038Y0335719D01*
X0367822Y0335496D01*
X0367601Y0335278D01*
X0367375Y0335066D01*
X0367144Y0334859D01*
X0366908Y0334658D01*
X0366667Y0334463D01*
X0366422Y0334273D01*
X0366172Y0334090D01*
X0365917Y0333913D01*
X0365658Y0333742D01*
X0365395Y0333577D01*
X0365129Y0333419D01*
X0364858Y0333268D01*
X0364584Y0333123D01*
X0364306Y0332984D01*
X0364025Y0332853D01*
X0363741Y0332728D01*
X0363454Y0332611D01*
X0363164Y0332500D01*
X0362872Y0332397D01*
X0362577Y0332301D01*
X0362280Y0332212D01*
X0361981Y0332130D01*
X0361680Y0332055D01*
X0361377Y0331988D01*
X0361073Y0331928D01*
X0360767Y0331876D01*
X0360460Y0331831D01*
X0360152Y0331794D01*
X0359844Y0331764D01*
X0359534Y0331742D01*
X0359225Y0331727D01*
X0358914Y0331720D01*
X0358604Y0331720D01*
X0358294Y0331728D01*
X0357985Y0331744D01*
X0357998Y0331929D01*
X0358303Y0331914D01*
X0358608Y0331906D01*
X0358914Y0331906D01*
X0359219Y0331913D01*
X0359525Y0331927D01*
X0359829Y0331949D01*
X0360134Y0331979D01*
X0360437Y0332016D01*
X0360739Y0332060D01*
X0361040Y0332112D01*
X0361340Y0332170D01*
X0361639Y0332237D01*
X0361935Y0332310D01*
X0362230Y0332391D01*
X0362523Y0332478D01*
X0362813Y0332573D01*
X0363101Y0332675D01*
X0363387Y0332784D01*
X0363670Y0332900D01*
X0363949Y0333023D01*
X0364226Y0333152D01*
X0364500Y0333289D01*
X0364770Y0333431D01*
X0365037Y0333581D01*
X0365299Y0333737D01*
X0365558Y0333899D01*
X0365813Y0334067D01*
X0366064Y0334242D01*
X0366311Y0334422D01*
X0366553Y0334609D01*
X0366790Y0334802D01*
X0367023Y0335000D01*
X0367250Y0335204D01*
X0367473Y0335413D01*
X0367690Y0335627D01*
X0367903Y0335847D01*
X0368109Y0336072D01*
X0368311Y0336302D01*
X0368506Y0336537D01*
X0368696Y0336777D01*
X0368880Y0337021D01*
X0369058Y0337269D01*
X0369230Y0337522D01*
X0369395Y0337779D01*
X0369555Y0338039D01*
X0369707Y0338304D01*
X0369854Y0338572D01*
X0369994Y0338844D01*
X0370127Y0339119D01*
X0370253Y0339397D01*
X0370373Y0339678D01*
X0370485Y0339963D01*
X0370591Y0340249D01*
X0370690Y0340538D01*
X0370782Y0340830D01*
X0370866Y0341124D01*
X0370943Y0341419D01*
X0371014Y0341717D01*
X0371076Y0342016D01*
X0371132Y0342316D01*
X0371180Y0342618D01*
X0371221Y0342921D01*
X0371254Y0343225D01*
X0371281Y0343529D01*
X0371299Y0343834D01*
X0371310Y0344139D01*
X0371314Y0344445D01*
X0371310Y0344751D01*
X0371299Y0345056D01*
X0371281Y0345361D01*
X0371254Y0345665D01*
X0371221Y0345969D01*
X0371180Y0346272D01*
X0371132Y0346574D01*
X0371076Y0346874D01*
X0371014Y0347173D01*
X0370943Y0347471D01*
X0370866Y0347766D01*
X0370782Y0348060D01*
X0370690Y0348352D01*
X0370591Y0348641D01*
X0370485Y0348927D01*
X0370373Y0349212D01*
X0370253Y0349493D01*
X0370127Y0349771D01*
X0369994Y0350046D01*
X0369854Y0350318D01*
X0369707Y0350586D01*
X0369555Y0350851D01*
X0369395Y0351111D01*
X0369230Y0351368D01*
X0369058Y0351621D01*
X0368880Y0351869D01*
X0368696Y0352113D01*
X0368506Y0352353D01*
X0368311Y0352588D01*
X0368109Y0352818D01*
X0367903Y0353043D01*
X0367690Y0353263D01*
X0367473Y0353477D01*
X0367250Y0353686D01*
X0367023Y0353890D01*
X0366790Y0354088D01*
X0366553Y0354281D01*
X0366311Y0354468D01*
X0366064Y0354648D01*
X0365813Y0354823D01*
X0365558Y0354991D01*
X0365299Y0355153D01*
X0365037Y0355309D01*
X0364770Y0355459D01*
X0364500Y0355601D01*
X0364226Y0355738D01*
X0363949Y0355867D01*
X0363670Y0355990D01*
X0363387Y0356106D01*
X0363101Y0356215D01*
X0362813Y0356317D01*
X0362523Y0356412D01*
X0362230Y0356499D01*
X0361935Y0356580D01*
X0361639Y0356653D01*
X0361340Y0356720D01*
X0361040Y0356778D01*
X0360739Y0356830D01*
X0360437Y0356874D01*
X0360134Y0356911D01*
X0359829Y0356941D01*
X0359525Y0356963D01*
X0359219Y0356977D01*
X0358914Y0356984D01*
X0358608Y0356984D01*
X0358303Y0356976D01*
X0357998Y0356961D01*
X0358011Y0356775D01*
X0358311Y0356790D01*
X0358612Y0356798D01*
X0358913Y0356798D01*
X0359214Y0356791D01*
X0359515Y0356777D01*
X0359815Y0356755D01*
X0360115Y0356726D01*
X0360413Y0356690D01*
X0360711Y0356646D01*
X0361008Y0356595D01*
X0361303Y0356537D01*
X0361597Y0356472D01*
X0361890Y0356400D01*
X0362180Y0356320D01*
X0362468Y0356234D01*
X0362754Y0356140D01*
X0363038Y0356040D01*
X0363319Y0355932D01*
X0363598Y0355818D01*
X0363874Y0355697D01*
X0364146Y0355570D01*
X0364416Y0355436D01*
X0364682Y0355295D01*
X0364944Y0355148D01*
X0365203Y0354994D01*
X0365458Y0354834D01*
X0365710Y0354668D01*
X0365957Y0354496D01*
X0366199Y0354318D01*
X0366438Y0354135D01*
X0366672Y0353945D01*
X0366901Y0353750D01*
X0367125Y0353549D01*
X0367344Y0353343D01*
X0367559Y0353131D01*
X0367768Y0352915D01*
X0367971Y0352693D01*
X0368170Y0352466D01*
X0368362Y0352235D01*
X0368549Y0351999D01*
X0368730Y0351759D01*
X0368906Y0351514D01*
X0369075Y0351265D01*
X0369238Y0351012D01*
X0369395Y0350755D01*
X0369545Y0350494D01*
X0369690Y0350230D01*
X0369827Y0349963D01*
X0369959Y0349692D01*
X0370083Y0349418D01*
X0370201Y0349141D01*
X0370312Y0348861D01*
X0370416Y0348578D01*
X0370513Y0348293D01*
X0370604Y0348006D01*
X0370687Y0347717D01*
X0370763Y0347426D01*
X0370832Y0347133D01*
X0370894Y0346838D01*
X0370949Y0346542D01*
X0370996Y0346245D01*
X0371036Y0345946D01*
X0371069Y0345647D01*
X0371095Y0345347D01*
X0371113Y0345047D01*
X0371124Y0344746D01*
X0371128Y0344445D01*
X0371124Y0344144D01*
X0371113Y0343843D01*
X0371095Y0343543D01*
X0371069Y0343243D01*
X0371036Y0342944D01*
X0370996Y0342645D01*
X0370949Y0342348D01*
X0370894Y0342052D01*
X0370832Y0341757D01*
X0370763Y0341464D01*
X0370687Y0341173D01*
X0370604Y0340884D01*
X0370513Y0340597D01*
X0370416Y0340312D01*
X0370312Y0340029D01*
X0370201Y0339749D01*
X0370083Y0339472D01*
X0369959Y0339198D01*
X0369827Y0338927D01*
X0369690Y0338660D01*
X0369545Y0338396D01*
X0369395Y0338135D01*
X0369238Y0337878D01*
X0369075Y0337625D01*
X0368906Y0337376D01*
X0368730Y0337131D01*
X0368549Y0336891D01*
X0368362Y0336655D01*
X0368170Y0336424D01*
X0367971Y0336197D01*
X0367768Y0335975D01*
X0367559Y0335759D01*
X0367344Y0335547D01*
X0367125Y0335341D01*
X0366901Y0335140D01*
X0366672Y0334945D01*
X0366438Y0334755D01*
X0366199Y0334572D01*
X0365957Y0334394D01*
X0365710Y0334222D01*
X0365458Y0334056D01*
X0365203Y0333896D01*
X0364944Y0333742D01*
X0364682Y0333595D01*
X0364416Y0333454D01*
X0364146Y0333320D01*
X0363874Y0333193D01*
X0363598Y0333072D01*
X0363319Y0332958D01*
X0363038Y0332850D01*
X0362754Y0332750D01*
X0362468Y0332656D01*
X0362180Y0332570D01*
X0361890Y0332490D01*
X0361597Y0332418D01*
X0361303Y0332353D01*
X0361008Y0332295D01*
X0360711Y0332244D01*
X0360413Y0332200D01*
X0360115Y0332164D01*
X0359815Y0332135D01*
X0359515Y0332113D01*
X0359214Y0332099D01*
X0358913Y0332092D01*
X0358612Y0332092D01*
X0358311Y0332100D01*
X0358011Y0332115D01*
X0358023Y0332300D01*
X0358320Y0332285D01*
X0358616Y0332278D01*
X0358912Y0332278D01*
X0359209Y0332285D01*
X0359505Y0332299D01*
X0359801Y0332320D01*
X0360096Y0332349D01*
X0360390Y0332385D01*
X0360683Y0332428D01*
X0360976Y0332478D01*
X0361267Y0332535D01*
X0361556Y0332599D01*
X0361844Y0332671D01*
X0362130Y0332749D01*
X0362414Y0332834D01*
X0362695Y0332926D01*
X0362975Y0333025D01*
X0363252Y0333131D01*
X0363526Y0333243D01*
X0363798Y0333362D01*
X0364066Y0333488D01*
X0364332Y0333620D01*
X0364594Y0333759D01*
X0364852Y0333904D01*
X0365107Y0334055D01*
X0365359Y0334213D01*
X0365606Y0334376D01*
X0365849Y0334545D01*
X0366088Y0334721D01*
X0366323Y0334902D01*
X0366553Y0335089D01*
X0366779Y0335281D01*
X0367000Y0335479D01*
X0367216Y0335682D01*
X0367427Y0335890D01*
X0367633Y0336103D01*
X0367833Y0336322D01*
X0368029Y0336545D01*
X0368218Y0336773D01*
X0368402Y0337005D01*
X0368581Y0337242D01*
X0368753Y0337483D01*
X0368920Y0337728D01*
X0369081Y0337977D01*
X0369235Y0338230D01*
X0369384Y0338487D01*
X0369526Y0338747D01*
X0369661Y0339011D01*
X0369790Y0339278D01*
X0369913Y0339548D01*
X0370029Y0339821D01*
X0370138Y0340096D01*
X0370241Y0340374D01*
X0370337Y0340655D01*
X0370426Y0340938D01*
X0370508Y0341223D01*
X0370583Y0341509D01*
X0370651Y0341798D01*
X0370712Y0342088D01*
X0370765Y0342380D01*
X0370812Y0342672D01*
X0370852Y0342966D01*
X0370884Y0343261D01*
X0370910Y0343556D01*
X0370928Y0343852D01*
X0370938Y0344149D01*
X0370942Y0344445D01*
X0370938Y0344741D01*
X0370928Y0345038D01*
X0370910Y0345334D01*
X0370884Y0345629D01*
X0370852Y0345924D01*
X0370812Y0346218D01*
X0370765Y0346510D01*
X0370712Y0346802D01*
X0370651Y0347092D01*
X0370583Y0347381D01*
X0370508Y0347667D01*
X0370426Y0347952D01*
X0370337Y0348235D01*
X0370241Y0348516D01*
X0370138Y0348794D01*
X0370029Y0349069D01*
X0369913Y0349342D01*
X0369790Y0349612D01*
X0369661Y0349879D01*
X0369526Y0350143D01*
X0369384Y0350403D01*
X0369235Y0350660D01*
X0369081Y0350913D01*
X0368920Y0351162D01*
X0368753Y0351407D01*
X0368581Y0351648D01*
X0368402Y0351885D01*
X0368218Y0352117D01*
X0368029Y0352345D01*
X0367833Y0352568D01*
X0367633Y0352787D01*
X0367427Y0353000D01*
X0367216Y0353208D01*
X0367000Y0353411D01*
X0366779Y0353609D01*
X0366553Y0353801D01*
X0366323Y0353988D01*
X0366088Y0354169D01*
X0365849Y0354345D01*
X0365606Y0354514D01*
X0365359Y0354677D01*
X0365107Y0354835D01*
X0364852Y0354986D01*
X0364594Y0355131D01*
X0364332Y0355270D01*
X0364066Y0355402D01*
X0363798Y0355528D01*
X0363526Y0355647D01*
X0363252Y0355759D01*
X0362975Y0355865D01*
X0362695Y0355964D01*
X0362414Y0356056D01*
X0362130Y0356141D01*
X0361844Y0356219D01*
X0361556Y0356291D01*
X0361267Y0356355D01*
X0360976Y0356412D01*
X0360683Y0356462D01*
X0360390Y0356505D01*
X0360096Y0356541D01*
X0359801Y0356570D01*
X0359505Y0356591D01*
X0359209Y0356605D01*
X0358912Y0356612D01*
X0358616Y0356612D01*
X0358320Y0356605D01*
X0358023Y0356590D01*
X0358036Y0356404D01*
X0358328Y0356419D01*
X0358620Y0356426D01*
X0358912Y0356426D01*
X0359204Y0356419D01*
X0359495Y0356405D01*
X0359786Y0356384D01*
X0360077Y0356356D01*
X0360367Y0356321D01*
X0360656Y0356278D01*
X0360943Y0356229D01*
X0361230Y0356173D01*
X0361515Y0356109D01*
X0361798Y0356039D01*
X0362080Y0355962D01*
X0362359Y0355878D01*
X0362637Y0355787D01*
X0362912Y0355690D01*
X0363185Y0355586D01*
X0363455Y0355475D01*
X0363722Y0355358D01*
X0363986Y0355234D01*
X0364248Y0355104D01*
X0364506Y0354967D01*
X0364760Y0354824D01*
X0365011Y0354676D01*
X0365259Y0354521D01*
X0365502Y0354360D01*
X0365742Y0354193D01*
X0365977Y0354020D01*
X0366208Y0353842D01*
X0366435Y0353658D01*
X0366657Y0353468D01*
X0366875Y0353274D01*
X0367087Y0353074D01*
X0367295Y0352869D01*
X0367498Y0352659D01*
X0367695Y0352444D01*
X0367888Y0352224D01*
X0368074Y0352000D01*
X0368256Y0351771D01*
X0368431Y0351538D01*
X0368601Y0351300D01*
X0368765Y0351059D01*
X0368923Y0350813D01*
X0369076Y0350564D01*
X0369222Y0350312D01*
X0369361Y0350055D01*
X0369495Y0349796D01*
X0369622Y0349533D01*
X0369743Y0349267D01*
X0369857Y0348998D01*
X0369965Y0348727D01*
X0370066Y0348453D01*
X0370160Y0348177D01*
X0370248Y0347898D01*
X0370328Y0347618D01*
X0370402Y0347335D01*
X0370469Y0347051D01*
X0370529Y0346766D01*
X0370582Y0346479D01*
X0370628Y0346190D01*
X0370667Y0345901D01*
X0370699Y0345611D01*
X0370724Y0345320D01*
X0370742Y0345029D01*
X0370752Y0344737D01*
X0370756Y0344445D01*
X0370752Y0344153D01*
X0370742Y0343861D01*
X0370724Y0343570D01*
X0370699Y0343279D01*
X0370667Y0342989D01*
X0370628Y0342700D01*
X0370582Y0342411D01*
X0370529Y0342124D01*
X0370469Y0341839D01*
X0370402Y0341555D01*
X0370328Y0341272D01*
X0370248Y0340992D01*
X0370160Y0340713D01*
X0370066Y0340437D01*
X0369965Y0340163D01*
X0369857Y0339892D01*
X0369743Y0339623D01*
X0369622Y0339357D01*
X0369495Y0339094D01*
X0369361Y0338835D01*
X0369222Y0338578D01*
X0369076Y0338326D01*
X0368923Y0338077D01*
X0368765Y0337831D01*
X0368601Y0337590D01*
X0368431Y0337352D01*
X0368256Y0337119D01*
X0368074Y0336890D01*
X0367888Y0336666D01*
X0367695Y0336446D01*
X0367498Y0336231D01*
X0367295Y0336021D01*
X0367087Y0335816D01*
X0366875Y0335616D01*
X0366657Y0335422D01*
X0366435Y0335232D01*
X0366208Y0335048D01*
X0365977Y0334870D01*
X0365742Y0334697D01*
X0365502Y0334530D01*
X0365259Y0334369D01*
X0365011Y0334214D01*
X0364760Y0334066D01*
X0364506Y0333923D01*
X0364248Y0333786D01*
X0363986Y0333656D01*
X0363722Y0333532D01*
X0363455Y0333415D01*
X0363185Y0333304D01*
X0362912Y0333200D01*
X0362637Y0333103D01*
X0362359Y0333012D01*
X0362080Y0332928D01*
X0361798Y0332851D01*
X0361515Y0332781D01*
X0361230Y0332717D01*
X0360943Y0332661D01*
X0360656Y0332612D01*
X0360367Y0332569D01*
X0360077Y0332534D01*
X0359786Y0332506D01*
X0359495Y0332485D01*
X0359204Y0332471D01*
X0358912Y0332464D01*
X0358620Y0332464D01*
X0358328Y0332471D01*
X0358036Y0332486D01*
X0358049Y0332671D01*
X0358336Y0332657D01*
X0358624Y0332650D01*
X0358911Y0332650D01*
X0359198Y0332657D01*
X0359485Y0332670D01*
X0359772Y0332691D01*
X0360058Y0332719D01*
X0360343Y0332754D01*
X0360628Y0332796D01*
X0360911Y0332844D01*
X0361193Y0332900D01*
X0361473Y0332962D01*
X0361752Y0333031D01*
X0362029Y0333107D01*
X0362305Y0333190D01*
X0362578Y0333279D01*
X0362849Y0333375D01*
X0363117Y0333478D01*
X0363383Y0333587D01*
X0363646Y0333702D01*
X0363906Y0333824D01*
X0364164Y0333952D01*
X0364418Y0334087D01*
X0364668Y0334227D01*
X0364915Y0334374D01*
X0365159Y0334526D01*
X0365399Y0334685D01*
X0365634Y0334849D01*
X0365866Y0335019D01*
X0366094Y0335195D01*
X0366317Y0335376D01*
X0366535Y0335562D01*
X0366750Y0335754D01*
X0366959Y0335951D01*
X0367163Y0336153D01*
X0367363Y0336359D01*
X0367557Y0336571D01*
X0367746Y0336787D01*
X0367930Y0337008D01*
X0368109Y0337233D01*
X0368282Y0337463D01*
X0368449Y0337697D01*
X0368610Y0337934D01*
X0368766Y0338176D01*
X0368916Y0338421D01*
X0369060Y0338670D01*
X0369197Y0338922D01*
X0369329Y0339178D01*
X0369454Y0339436D01*
X0369573Y0339698D01*
X0369685Y0339963D01*
X0369791Y0340230D01*
X0369891Y0340499D01*
X0369983Y0340771D01*
X0370070Y0341045D01*
X0370149Y0341322D01*
X0370222Y0341600D01*
X0370288Y0341879D01*
X0370347Y0342161D01*
X0370399Y0342443D01*
X0370444Y0342727D01*
X0370483Y0343012D01*
X0370514Y0343297D01*
X0370539Y0343584D01*
X0370556Y0343870D01*
X0370566Y0344158D01*
X0370570Y0344445D01*
X0370566Y0344732D01*
X0370556Y0345020D01*
X0370539Y0345306D01*
X0370514Y0345593D01*
X0370483Y0345878D01*
X0370444Y0346163D01*
X0370399Y0346447D01*
X0370347Y0346729D01*
X0370288Y0347011D01*
X0370222Y0347290D01*
X0370149Y0347568D01*
X0370070Y0347845D01*
X0369983Y0348119D01*
X0369891Y0348391D01*
X0369791Y0348660D01*
X0369685Y0348927D01*
X0369573Y0349192D01*
X0369454Y0349454D01*
X0369329Y0349712D01*
X0369197Y0349968D01*
X0369060Y0350220D01*
X0368916Y0350469D01*
X0368766Y0350714D01*
X0368610Y0350956D01*
X0368449Y0351193D01*
X0368282Y0351427D01*
X0368109Y0351657D01*
X0367930Y0351882D01*
X0367746Y0352103D01*
X0367557Y0352319D01*
X0367363Y0352531D01*
X0367163Y0352737D01*
X0366959Y0352939D01*
X0366750Y0353136D01*
X0366535Y0353328D01*
X0366317Y0353514D01*
X0366094Y0353695D01*
X0365866Y0353871D01*
X0365634Y0354041D01*
X0365399Y0354205D01*
X0365159Y0354364D01*
X0364915Y0354516D01*
X0364668Y0354663D01*
X0364418Y0354803D01*
X0364164Y0354938D01*
X0363906Y0355066D01*
X0363646Y0355188D01*
X0363383Y0355303D01*
X0363117Y0355412D01*
X0362849Y0355515D01*
X0362578Y0355611D01*
X0362305Y0355700D01*
X0362029Y0355783D01*
X0361752Y0355859D01*
X0361473Y0355928D01*
X0361193Y0355990D01*
X0360911Y0356046D01*
X0360628Y0356094D01*
X0360343Y0356136D01*
X0360058Y0356171D01*
X0359772Y0356199D01*
X0359485Y0356220D01*
X0359198Y0356233D01*
X0358911Y0356240D01*
X0358624Y0356240D01*
X0358336Y0356233D01*
X0358049Y0356219D01*
X0358062Y0356033D01*
X0358347Y0356047D01*
X0358632Y0356054D01*
X0358917Y0356054D01*
X0359202Y0356047D01*
X0359486Y0356033D01*
X0359770Y0356012D01*
X0360054Y0355984D01*
X0360337Y0355949D01*
X0360619Y0355908D01*
X0360899Y0355859D01*
X0361179Y0355803D01*
X0361457Y0355741D01*
X0361733Y0355672D01*
X0362008Y0355596D01*
X0362281Y0355513D01*
X0362551Y0355423D01*
X0362819Y0355327D01*
X0363085Y0355225D01*
X0363348Y0355116D01*
X0363609Y0355000D01*
X0363867Y0354879D01*
X0364121Y0354750D01*
X0364372Y0354616D01*
X0364620Y0354476D01*
X0364865Y0354329D01*
X0365105Y0354177D01*
X0365342Y0354018D01*
X0365575Y0353854D01*
X0365804Y0353685D01*
X0366029Y0353509D01*
X0366249Y0353328D01*
X0366465Y0353142D01*
X0366676Y0352951D01*
X0366882Y0352755D01*
X0367084Y0352553D01*
X0367280Y0352347D01*
X0367472Y0352136D01*
X0367658Y0351920D01*
X0367838Y0351700D01*
X0368014Y0351475D01*
X0368183Y0351246D01*
X0368348Y0351013D01*
X0368506Y0350776D01*
X0368658Y0350535D01*
X0368805Y0350291D01*
X0368945Y0350043D01*
X0369080Y0349792D01*
X0369208Y0349537D01*
X0369329Y0349280D01*
X0369445Y0349019D01*
X0369554Y0348756D01*
X0369657Y0348490D01*
X0369753Y0348222D01*
X0369842Y0347951D01*
X0369925Y0347679D01*
X0370001Y0347404D01*
X0370070Y0347128D01*
X0370132Y0346850D01*
X0370188Y0346570D01*
X0370237Y0346289D01*
X0370278Y0346007D01*
X0370313Y0345725D01*
X0370341Y0345441D01*
X0370362Y0345157D01*
X0370376Y0344872D01*
X0370383Y0344587D01*
X0370383Y0344303D01*
X0370376Y0344018D01*
X0370362Y0343733D01*
X0370341Y0343449D01*
X0370313Y0343165D01*
X0370278Y0342883D01*
X0370237Y0342601D01*
X0370188Y0342320D01*
X0370132Y0342040D01*
X0370070Y0341762D01*
X0370001Y0341486D01*
X0369925Y0341211D01*
X0369842Y0340939D01*
X0369753Y0340668D01*
X0369657Y0340400D01*
X0369554Y0340134D01*
X0369445Y0339871D01*
X0369329Y0339610D01*
X0369208Y0339353D01*
X0369080Y0339098D01*
X0368945Y0338847D01*
X0368805Y0338599D01*
X0368658Y0338355D01*
X0368506Y0338114D01*
X0368348Y0337877D01*
X0368183Y0337644D01*
X0368014Y0337415D01*
X0367838Y0337190D01*
X0367658Y0336970D01*
X0367472Y0336754D01*
X0367280Y0336543D01*
X0367084Y0336337D01*
X0366882Y0336135D01*
X0366676Y0335939D01*
X0366465Y0335748D01*
X0366249Y0335562D01*
X0366029Y0335381D01*
X0365804Y0335205D01*
X0365575Y0335036D01*
X0365342Y0334872D01*
X0365105Y0334713D01*
X0364865Y0334561D01*
X0364620Y0334414D01*
X0364372Y0334274D01*
X0364121Y0334140D01*
X0363867Y0334011D01*
X0363609Y0333890D01*
X0363348Y0333774D01*
X0363085Y0333665D01*
X0362819Y0333563D01*
X0362551Y0333467D01*
X0362281Y0333377D01*
X0362008Y0333294D01*
X0361733Y0333218D01*
X0361457Y0333149D01*
X0361179Y0333087D01*
X0360899Y0333031D01*
X0360619Y0332982D01*
X0360337Y0332941D01*
X0360054Y0332906D01*
X0359770Y0332878D01*
X0359486Y0332857D01*
X0359202Y0332843D01*
X0358917Y0332836D01*
X0358632Y0332836D01*
X0358347Y0332843D01*
X0358062Y0332857D01*
X0358075Y0333042D01*
X0358355Y0333029D01*
X0358636Y0333022D01*
X0358916Y0333022D01*
X0359196Y0333029D01*
X0359476Y0333043D01*
X0359756Y0333063D01*
X0360035Y0333091D01*
X0360313Y0333125D01*
X0360590Y0333166D01*
X0360867Y0333214D01*
X0361142Y0333269D01*
X0361415Y0333330D01*
X0361687Y0333399D01*
X0361957Y0333473D01*
X0362226Y0333555D01*
X0362492Y0333643D01*
X0362756Y0333737D01*
X0363017Y0333838D01*
X0363276Y0333946D01*
X0363533Y0334059D01*
X0363786Y0334179D01*
X0364036Y0334305D01*
X0364284Y0334437D01*
X0364527Y0334576D01*
X0364768Y0334720D01*
X0365005Y0334870D01*
X0365238Y0335026D01*
X0365467Y0335187D01*
X0365692Y0335354D01*
X0365913Y0335527D01*
X0366130Y0335704D01*
X0366342Y0335888D01*
X0366550Y0336076D01*
X0366753Y0336269D01*
X0366951Y0336467D01*
X0367144Y0336670D01*
X0367333Y0336878D01*
X0367516Y0337090D01*
X0367694Y0337307D01*
X0367866Y0337528D01*
X0368033Y0337753D01*
X0368195Y0337983D01*
X0368350Y0338216D01*
X0368500Y0338453D01*
X0368644Y0338693D01*
X0368783Y0338937D01*
X0368915Y0339184D01*
X0369041Y0339435D01*
X0369161Y0339688D01*
X0369274Y0339944D01*
X0369381Y0340203D01*
X0369482Y0340465D01*
X0369577Y0340729D01*
X0369665Y0340995D01*
X0369746Y0341264D01*
X0369821Y0341534D01*
X0369889Y0341806D01*
X0369950Y0342079D01*
X0370005Y0342354D01*
X0370053Y0342630D01*
X0370094Y0342908D01*
X0370128Y0343186D01*
X0370156Y0343465D01*
X0370177Y0343745D01*
X0370190Y0344025D01*
X0370197Y0344305D01*
X0370197Y0344585D01*
X0370190Y0344865D01*
X0370177Y0345145D01*
X0370156Y0345425D01*
X0370128Y0345704D01*
X0370094Y0345982D01*
X0370053Y0346260D01*
X0370005Y0346536D01*
X0369950Y0346811D01*
X0369889Y0347084D01*
X0369821Y0347356D01*
X0369746Y0347626D01*
X0369665Y0347895D01*
X0369577Y0348161D01*
X0369482Y0348425D01*
X0369381Y0348687D01*
X0369274Y0348946D01*
X0369161Y0349202D01*
X0369041Y0349455D01*
X0368915Y0349706D01*
X0368783Y0349953D01*
X0368644Y0350197D01*
X0368500Y0350437D01*
X0368350Y0350674D01*
X0368195Y0350907D01*
X0368033Y0351137D01*
X0367866Y0351362D01*
X0367694Y0351583D01*
X0367516Y0351800D01*
X0367333Y0352012D01*
X0367144Y0352220D01*
X0366951Y0352423D01*
X0366753Y0352621D01*
X0366550Y0352814D01*
X0366342Y0353002D01*
X0366130Y0353186D01*
X0365913Y0353363D01*
X0365692Y0353536D01*
X0365467Y0353703D01*
X0365238Y0353864D01*
X0365005Y0354020D01*
X0364768Y0354170D01*
X0364527Y0354314D01*
X0364284Y0354453D01*
X0364036Y0354585D01*
X0363786Y0354711D01*
X0363533Y0354831D01*
X0363276Y0354944D01*
X0363017Y0355052D01*
X0362756Y0355153D01*
X0362492Y0355247D01*
X0362226Y0355335D01*
X0361957Y0355417D01*
X0361687Y0355491D01*
X0361415Y0355560D01*
X0361142Y0355621D01*
X0360867Y0355676D01*
X0360590Y0355724D01*
X0360313Y0355765D01*
X0360035Y0355799D01*
X0359756Y0355827D01*
X0359476Y0355847D01*
X0359196Y0355861D01*
X0358916Y0355868D01*
X0358636Y0355868D01*
X0358355Y0355861D01*
X0358075Y0355848D01*
X0358088Y0355662D01*
X0358364Y0355676D01*
X0358639Y0355682D01*
X0358915Y0355682D01*
X0359191Y0355675D01*
X0359466Y0355662D01*
X0359741Y0355641D01*
X0360016Y0355614D01*
X0360289Y0355580D01*
X0360562Y0355540D01*
X0360834Y0355493D01*
X0361104Y0355439D01*
X0361373Y0355378D01*
X0361641Y0355311D01*
X0361907Y0355238D01*
X0362171Y0355157D01*
X0362432Y0355071D01*
X0362692Y0354978D01*
X0362949Y0354879D01*
X0363204Y0354773D01*
X0363456Y0354661D01*
X0363705Y0354543D01*
X0363952Y0354419D01*
X0364195Y0354289D01*
X0364435Y0354153D01*
X0364671Y0354011D01*
X0364904Y0353864D01*
X0365133Y0353711D01*
X0365359Y0353552D01*
X0365580Y0353387D01*
X0365798Y0353218D01*
X0366011Y0353043D01*
X0366220Y0352863D01*
X0366424Y0352677D01*
X0366624Y0352487D01*
X0366819Y0352292D01*
X0367009Y0352092D01*
X0367194Y0351888D01*
X0367374Y0351679D01*
X0367549Y0351466D01*
X0367718Y0351249D01*
X0367883Y0351027D01*
X0368041Y0350802D01*
X0368195Y0350572D01*
X0368342Y0350339D01*
X0368484Y0350103D01*
X0368620Y0349863D01*
X0368750Y0349620D01*
X0368874Y0349373D01*
X0368992Y0349124D01*
X0369103Y0348872D01*
X0369209Y0348617D01*
X0369308Y0348360D01*
X0369401Y0348100D01*
X0369487Y0347838D01*
X0369567Y0347574D01*
X0369641Y0347309D01*
X0369708Y0347041D01*
X0369768Y0346772D01*
X0369822Y0346502D01*
X0369869Y0346230D01*
X0369910Y0345957D01*
X0369944Y0345683D01*
X0369971Y0345409D01*
X0369991Y0345134D01*
X0370004Y0344859D01*
X0370011Y0344583D01*
X0370011Y0344307D01*
X0370004Y0344031D01*
X0369991Y0343756D01*
X0369971Y0343481D01*
X0369944Y0343207D01*
X0369910Y0342933D01*
X0369869Y0342660D01*
X0369822Y0342388D01*
X0369768Y0342118D01*
X0369708Y0341849D01*
X0369641Y0341581D01*
X0369567Y0341316D01*
X0369487Y0341052D01*
X0369401Y0340790D01*
X0369308Y0340530D01*
X0369209Y0340273D01*
X0369103Y0340018D01*
X0368992Y0339766D01*
X0368874Y0339517D01*
X0368750Y0339270D01*
X0368620Y0339027D01*
X0368484Y0338787D01*
X0368342Y0338551D01*
X0368195Y0338318D01*
X0368041Y0338088D01*
X0367883Y0337863D01*
X0367718Y0337641D01*
X0367549Y0337424D01*
X0367374Y0337211D01*
X0367194Y0337002D01*
X0367009Y0336798D01*
X0366819Y0336598D01*
X0366624Y0336403D01*
X0366424Y0336213D01*
X0366220Y0336027D01*
X0366011Y0335847D01*
X0365798Y0335672D01*
X0365580Y0335503D01*
X0365359Y0335338D01*
X0365133Y0335179D01*
X0364904Y0335026D01*
X0364671Y0334879D01*
X0364435Y0334737D01*
X0364195Y0334601D01*
X0363952Y0334471D01*
X0363705Y0334347D01*
X0363456Y0334229D01*
X0363204Y0334117D01*
X0362949Y0334011D01*
X0362692Y0333912D01*
X0362432Y0333819D01*
X0362171Y0333733D01*
X0361907Y0333652D01*
X0361641Y0333579D01*
X0361373Y0333512D01*
X0361104Y0333451D01*
X0360834Y0333397D01*
X0360562Y0333350D01*
X0360289Y0333310D01*
X0360016Y0333276D01*
X0359741Y0333249D01*
X0359466Y0333228D01*
X0359191Y0333215D01*
X0358915Y0333208D01*
X0358639Y0333208D01*
X0358364Y0333214D01*
X0358088Y0333228D01*
X0358101Y0333413D01*
X0358372Y0333400D01*
X0358643Y0333394D01*
X0358914Y0333394D01*
X0359186Y0333401D01*
X0359456Y0333414D01*
X0359727Y0333434D01*
X0359997Y0333461D01*
X0360266Y0333494D01*
X0360534Y0333534D01*
X0360801Y0333581D01*
X0361067Y0333634D01*
X0361332Y0333693D01*
X0361595Y0333759D01*
X0361856Y0333831D01*
X0362116Y0333910D01*
X0362373Y0333995D01*
X0362628Y0334087D01*
X0362881Y0334185D01*
X0363132Y0334288D01*
X0363380Y0334398D01*
X0363625Y0334514D01*
X0363867Y0334636D01*
X0364106Y0334764D01*
X0364342Y0334898D01*
X0364574Y0335037D01*
X0364804Y0335183D01*
X0365029Y0335333D01*
X0365251Y0335490D01*
X0365468Y0335651D01*
X0365682Y0335818D01*
X0365892Y0335990D01*
X0366097Y0336167D01*
X0366298Y0336349D01*
X0366494Y0336536D01*
X0366686Y0336728D01*
X0366873Y0336925D01*
X0367055Y0337126D01*
X0367232Y0337331D01*
X0367404Y0337541D01*
X0367571Y0337754D01*
X0367732Y0337972D01*
X0367888Y0338194D01*
X0368039Y0338420D01*
X0368184Y0338649D01*
X0368323Y0338881D01*
X0368457Y0339117D01*
X0368585Y0339356D01*
X0368707Y0339599D01*
X0368823Y0339844D01*
X0368933Y0340092D01*
X0369036Y0340342D01*
X0369134Y0340595D01*
X0369225Y0340851D01*
X0369310Y0341108D01*
X0369389Y0341368D01*
X0369461Y0341629D01*
X0369527Y0341892D01*
X0369586Y0342157D01*
X0369639Y0342423D01*
X0369686Y0342690D01*
X0369726Y0342958D01*
X0369759Y0343227D01*
X0369785Y0343497D01*
X0369805Y0343767D01*
X0369819Y0344038D01*
X0369825Y0344309D01*
X0369825Y0344581D01*
X0369819Y0344852D01*
X0369805Y0345123D01*
X0369785Y0345393D01*
X0369759Y0345663D01*
X0369726Y0345932D01*
X0369686Y0346200D01*
X0369639Y0346467D01*
X0369586Y0346733D01*
X0369527Y0346998D01*
X0369461Y0347261D01*
X0369389Y0347522D01*
X0369310Y0347782D01*
X0369225Y0348039D01*
X0369134Y0348295D01*
X0369036Y0348548D01*
X0368933Y0348798D01*
X0368823Y0349046D01*
X0368707Y0349291D01*
X0368585Y0349534D01*
X0368457Y0349773D01*
X0368323Y0350009D01*
X0368184Y0350241D01*
X0368039Y0350470D01*
X0367888Y0350696D01*
X0367732Y0350918D01*
X0367571Y0351136D01*
X0367404Y0351349D01*
X0367232Y0351559D01*
X0367055Y0351764D01*
X0366873Y0351965D01*
X0366686Y0352162D01*
X0366494Y0352354D01*
X0366298Y0352541D01*
X0366097Y0352723D01*
X0365892Y0352900D01*
X0365682Y0353072D01*
X0365468Y0353239D01*
X0365251Y0353400D01*
X0365029Y0353557D01*
X0364804Y0353707D01*
X0364574Y0353853D01*
X0364342Y0353992D01*
X0364106Y0354126D01*
X0363867Y0354254D01*
X0363625Y0354376D01*
X0363380Y0354492D01*
X0363132Y0354602D01*
X0362881Y0354705D01*
X0362628Y0354803D01*
X0362373Y0354895D01*
X0362116Y0354980D01*
X0361856Y0355059D01*
X0361595Y0355131D01*
X0361332Y0355197D01*
X0361067Y0355256D01*
X0360801Y0355309D01*
X0360534Y0355356D01*
X0360266Y0355396D01*
X0359997Y0355429D01*
X0359727Y0355456D01*
X0359456Y0355476D01*
X0359186Y0355489D01*
X0358914Y0355496D01*
X0358643Y0355496D01*
X0358372Y0355490D01*
X0358101Y0355477D01*
X0357936Y0335681D02*
X0358156Y0337439D01*
X0358328Y0337422D01*
X0358500Y0337409D01*
X0358673Y0337401D01*
X0358846Y0337397D01*
X0359019Y0337397D01*
X0359192Y0337401D01*
X0359365Y0337409D01*
X0359537Y0337422D01*
X0359709Y0337439D01*
X0359881Y0337460D01*
X0360052Y0337486D01*
X0360223Y0337515D01*
X0360392Y0337549D01*
X0360561Y0337587D01*
X0360729Y0337629D01*
X0360896Y0337675D01*
X0361061Y0337725D01*
X0361225Y0337780D01*
X0361388Y0337838D01*
X0361550Y0337900D01*
X0361710Y0337966D01*
X0361868Y0338036D01*
X0362024Y0338110D01*
X0362179Y0338188D01*
X0362331Y0338270D01*
X0362482Y0338355D01*
X0362630Y0338444D01*
X0362776Y0338537D01*
X0362920Y0338633D01*
X0363061Y0338732D01*
X0363200Y0338835D01*
X0363337Y0338942D01*
X0363471Y0339051D01*
X0363602Y0339164D01*
X0363730Y0339281D01*
X0363855Y0339400D01*
X0363977Y0339522D01*
X0364097Y0339648D01*
X0364213Y0339776D01*
X0364326Y0339907D01*
X0364436Y0340041D01*
X0364542Y0340177D01*
X0364645Y0340316D01*
X0364745Y0340457D01*
X0364841Y0340601D01*
X0364933Y0340747D01*
X0365022Y0340896D01*
X0365107Y0341046D01*
X0365189Y0341199D01*
X0365267Y0341353D01*
X0365341Y0341510D01*
X0365411Y0341668D01*
X0365477Y0341828D01*
X0365539Y0341989D01*
X0365598Y0342152D01*
X0365652Y0342316D01*
X0365702Y0342482D01*
X0365748Y0342649D01*
X0365790Y0342816D01*
X0365828Y0342985D01*
X0365862Y0343155D01*
X0365891Y0343325D01*
X0365917Y0343496D01*
X0365938Y0343668D01*
X0365955Y0343840D01*
X0365968Y0344013D01*
X0365976Y0344186D01*
X0365980Y0344359D01*
X0365980Y0344531D01*
X0365976Y0344704D01*
X0365968Y0344877D01*
X0365955Y0345050D01*
X0365938Y0345222D01*
X0365917Y0345394D01*
X0365891Y0345565D01*
X0365862Y0345735D01*
X0365828Y0345905D01*
X0365790Y0346074D01*
X0365748Y0346241D01*
X0365702Y0346408D01*
X0365652Y0346574D01*
X0365598Y0346738D01*
X0365539Y0346901D01*
X0365477Y0347062D01*
X0365411Y0347222D01*
X0365341Y0347380D01*
X0365267Y0347537D01*
X0365189Y0347691D01*
X0365107Y0347844D01*
X0365022Y0347994D01*
X0364933Y0348143D01*
X0364841Y0348289D01*
X0364745Y0348433D01*
X0364645Y0348574D01*
X0364542Y0348713D01*
X0364436Y0348849D01*
X0364326Y0348983D01*
X0364213Y0349114D01*
X0364097Y0349242D01*
X0363977Y0349368D01*
X0363855Y0349490D01*
X0363730Y0349609D01*
X0363602Y0349726D01*
X0363471Y0349839D01*
X0363337Y0349948D01*
X0363200Y0350055D01*
X0363061Y0350158D01*
X0362920Y0350257D01*
X0362776Y0350353D01*
X0362630Y0350446D01*
X0362482Y0350535D01*
X0362331Y0350620D01*
X0362179Y0350702D01*
X0362024Y0350780D01*
X0361868Y0350854D01*
X0361710Y0350924D01*
X0361550Y0350990D01*
X0361388Y0351052D01*
X0361225Y0351110D01*
X0361061Y0351165D01*
X0360896Y0351215D01*
X0360729Y0351261D01*
X0360561Y0351303D01*
X0360392Y0351341D01*
X0360223Y0351375D01*
X0360052Y0351404D01*
X0359881Y0351430D01*
X0359709Y0351451D01*
X0359537Y0351468D01*
X0359365Y0351481D01*
X0359192Y0351489D01*
X0359019Y0351493D01*
X0358846Y0351493D01*
X0358673Y0351489D01*
X0358500Y0351481D01*
X0358328Y0351468D01*
X0358156Y0351451D01*
X0357936Y0353209D01*
X0357936Y0353210D01*
X0358150Y0353231D01*
X0358365Y0353248D01*
X0358580Y0353259D01*
X0358795Y0353265D01*
X0359010Y0353266D01*
X0359225Y0353261D01*
X0359440Y0353251D01*
X0359655Y0353236D01*
X0359869Y0353216D01*
X0360083Y0353191D01*
X0360296Y0353160D01*
X0360508Y0353124D01*
X0360720Y0353083D01*
X0360930Y0353037D01*
X0361139Y0352985D01*
X0361347Y0352929D01*
X0361553Y0352868D01*
X0361758Y0352801D01*
X0361961Y0352730D01*
X0362162Y0352653D01*
X0362362Y0352572D01*
X0362559Y0352486D01*
X0362754Y0352395D01*
X0362947Y0352299D01*
X0363137Y0352199D01*
X0363325Y0352094D01*
X0363511Y0351985D01*
X0363693Y0351871D01*
X0363873Y0351752D01*
X0364050Y0351629D01*
X0364224Y0351502D01*
X0364394Y0351371D01*
X0364562Y0351236D01*
X0364726Y0351096D01*
X0364886Y0350953D01*
X0365043Y0350806D01*
X0365197Y0350655D01*
X0365347Y0350500D01*
X0365492Y0350342D01*
X0365634Y0350180D01*
X0365772Y0350015D01*
X0365906Y0349846D01*
X0366036Y0349674D01*
X0366161Y0349499D01*
X0366283Y0349321D01*
X0366399Y0349141D01*
X0366512Y0348957D01*
X0366620Y0348771D01*
X0366723Y0348582D01*
X0366822Y0348390D01*
X0366915Y0348197D01*
X0367005Y0348001D01*
X0367089Y0347803D01*
X0367168Y0347603D01*
X0367243Y0347401D01*
X0367313Y0347197D01*
X0367377Y0346992D01*
X0367437Y0346785D01*
X0367492Y0346577D01*
X0367541Y0346367D01*
X0367585Y0346156D01*
X0367625Y0345945D01*
X0367659Y0345732D01*
X0367687Y0345519D01*
X0367711Y0345305D01*
X0367729Y0345090D01*
X0367742Y0344875D01*
X0367750Y0344660D01*
X0367753Y0344445D01*
X0367750Y0344230D01*
X0367742Y0344015D01*
X0367729Y0343800D01*
X0367711Y0343585D01*
X0367687Y0343371D01*
X0367659Y0343158D01*
X0367625Y0342945D01*
X0367585Y0342734D01*
X0367541Y0342523D01*
X0367492Y0342313D01*
X0367437Y0342105D01*
X0367377Y0341898D01*
X0367313Y0341693D01*
X0367243Y0341489D01*
X0367168Y0341287D01*
X0367089Y0341087D01*
X0367005Y0340889D01*
X0366915Y0340693D01*
X0366822Y0340500D01*
X0366723Y0340308D01*
X0366620Y0340119D01*
X0366512Y0339933D01*
X0366399Y0339749D01*
X0366283Y0339569D01*
X0366161Y0339391D01*
X0366036Y0339216D01*
X0365906Y0339044D01*
X0365772Y0338875D01*
X0365634Y0338710D01*
X0365492Y0338548D01*
X0365347Y0338390D01*
X0365197Y0338235D01*
X0365043Y0338084D01*
X0364886Y0337937D01*
X0364726Y0337794D01*
X0364562Y0337654D01*
X0364394Y0337519D01*
X0364224Y0337388D01*
X0364050Y0337261D01*
X0363873Y0337138D01*
X0363693Y0337019D01*
X0363511Y0336905D01*
X0363325Y0336796D01*
X0363137Y0336691D01*
X0362947Y0336591D01*
X0362754Y0336495D01*
X0362559Y0336404D01*
X0362362Y0336318D01*
X0362162Y0336237D01*
X0361961Y0336160D01*
X0361758Y0336089D01*
X0361553Y0336022D01*
X0361347Y0335961D01*
X0361139Y0335905D01*
X0360930Y0335853D01*
X0360720Y0335807D01*
X0360508Y0335766D01*
X0360296Y0335730D01*
X0360083Y0335699D01*
X0359869Y0335674D01*
X0359655Y0335654D01*
X0359440Y0335639D01*
X0359225Y0335629D01*
X0359010Y0335624D01*
X0358795Y0335625D01*
X0358580Y0335631D01*
X0358365Y0335642D01*
X0358150Y0335659D01*
X0357936Y0335680D01*
X0357959Y0335865D01*
X0358168Y0335844D01*
X0358378Y0335828D01*
X0358589Y0335817D01*
X0358800Y0335811D01*
X0359010Y0335810D01*
X0359221Y0335815D01*
X0359431Y0335824D01*
X0359642Y0335839D01*
X0359851Y0335859D01*
X0360061Y0335884D01*
X0360269Y0335914D01*
X0360477Y0335949D01*
X0360684Y0335990D01*
X0360889Y0336035D01*
X0361094Y0336085D01*
X0361297Y0336140D01*
X0361499Y0336201D01*
X0361700Y0336266D01*
X0361899Y0336336D01*
X0362096Y0336410D01*
X0362291Y0336490D01*
X0362484Y0336574D01*
X0362675Y0336663D01*
X0362863Y0336757D01*
X0363050Y0336855D01*
X0363234Y0336958D01*
X0363415Y0337065D01*
X0363594Y0337177D01*
X0363770Y0337293D01*
X0363943Y0337413D01*
X0364113Y0337537D01*
X0364280Y0337666D01*
X0364444Y0337798D01*
X0364604Y0337935D01*
X0364762Y0338075D01*
X0364915Y0338219D01*
X0365065Y0338367D01*
X0365212Y0338518D01*
X0365355Y0338673D01*
X0365494Y0338832D01*
X0365629Y0338994D01*
X0365760Y0339159D01*
X0365887Y0339327D01*
X0366009Y0339498D01*
X0366128Y0339672D01*
X0366242Y0339849D01*
X0366352Y0340029D01*
X0366458Y0340211D01*
X0366559Y0340396D01*
X0366655Y0340583D01*
X0366747Y0340773D01*
X0366835Y0340965D01*
X0366917Y0341159D01*
X0366995Y0341354D01*
X0367068Y0341552D01*
X0367136Y0341751D01*
X0367199Y0341952D01*
X0367258Y0342155D01*
X0367311Y0342359D01*
X0367360Y0342564D01*
X0367403Y0342770D01*
X0367441Y0342977D01*
X0367475Y0343185D01*
X0367503Y0343394D01*
X0367526Y0343603D01*
X0367544Y0343813D01*
X0367557Y0344024D01*
X0367564Y0344234D01*
X0367567Y0344445D01*
X0367564Y0344656D01*
X0367557Y0344866D01*
X0367544Y0345077D01*
X0367526Y0345287D01*
X0367503Y0345496D01*
X0367475Y0345705D01*
X0367441Y0345913D01*
X0367403Y0346120D01*
X0367360Y0346326D01*
X0367311Y0346531D01*
X0367258Y0346735D01*
X0367199Y0346938D01*
X0367136Y0347139D01*
X0367068Y0347338D01*
X0366995Y0347536D01*
X0366917Y0347731D01*
X0366835Y0347925D01*
X0366747Y0348117D01*
X0366655Y0348307D01*
X0366559Y0348494D01*
X0366458Y0348679D01*
X0366352Y0348861D01*
X0366242Y0349041D01*
X0366128Y0349218D01*
X0366009Y0349392D01*
X0365887Y0349563D01*
X0365760Y0349731D01*
X0365629Y0349896D01*
X0365494Y0350058D01*
X0365355Y0350217D01*
X0365212Y0350372D01*
X0365065Y0350523D01*
X0364915Y0350671D01*
X0364762Y0350815D01*
X0364604Y0350955D01*
X0364444Y0351092D01*
X0364280Y0351224D01*
X0364113Y0351353D01*
X0363943Y0351477D01*
X0363770Y0351597D01*
X0363594Y0351713D01*
X0363415Y0351825D01*
X0363234Y0351932D01*
X0363050Y0352035D01*
X0362863Y0352133D01*
X0362675Y0352227D01*
X0362484Y0352316D01*
X0362291Y0352400D01*
X0362096Y0352480D01*
X0361899Y0352554D01*
X0361700Y0352624D01*
X0361499Y0352689D01*
X0361297Y0352750D01*
X0361094Y0352805D01*
X0360889Y0352855D01*
X0360684Y0352900D01*
X0360477Y0352941D01*
X0360269Y0352976D01*
X0360061Y0353006D01*
X0359851Y0353031D01*
X0359642Y0353051D01*
X0359431Y0353066D01*
X0359221Y0353075D01*
X0359010Y0353080D01*
X0358800Y0353079D01*
X0358589Y0353073D01*
X0358378Y0353062D01*
X0358168Y0353046D01*
X0357959Y0353025D01*
X0357982Y0352840D01*
X0358187Y0352861D01*
X0358392Y0352877D01*
X0358598Y0352887D01*
X0358804Y0352893D01*
X0359011Y0352894D01*
X0359217Y0352889D01*
X0359423Y0352880D01*
X0359628Y0352865D01*
X0359833Y0352846D01*
X0360038Y0352821D01*
X0360242Y0352792D01*
X0360445Y0352757D01*
X0360648Y0352718D01*
X0360849Y0352674D01*
X0361049Y0352624D01*
X0361248Y0352570D01*
X0361446Y0352511D01*
X0361642Y0352448D01*
X0361836Y0352379D01*
X0362029Y0352306D01*
X0362220Y0352228D01*
X0362409Y0352146D01*
X0362595Y0352059D01*
X0362780Y0351967D01*
X0362962Y0351871D01*
X0363142Y0351770D01*
X0363320Y0351665D01*
X0363495Y0351556D01*
X0363667Y0351443D01*
X0363836Y0351325D01*
X0364002Y0351203D01*
X0364166Y0351078D01*
X0364326Y0350948D01*
X0364483Y0350815D01*
X0364637Y0350677D01*
X0364787Y0350536D01*
X0364934Y0350392D01*
X0365077Y0350243D01*
X0365217Y0350092D01*
X0365353Y0349937D01*
X0365485Y0349778D01*
X0365613Y0349617D01*
X0365737Y0349452D01*
X0365857Y0349285D01*
X0365973Y0349114D01*
X0366085Y0348941D01*
X0366193Y0348765D01*
X0366296Y0348587D01*
X0366395Y0348406D01*
X0366489Y0348223D01*
X0366579Y0348037D01*
X0366665Y0347850D01*
X0366745Y0347660D01*
X0366821Y0347469D01*
X0366893Y0347275D01*
X0366960Y0347080D01*
X0367021Y0346884D01*
X0367079Y0346685D01*
X0367131Y0346486D01*
X0367178Y0346285D01*
X0367221Y0346084D01*
X0367258Y0345881D01*
X0367291Y0345677D01*
X0367318Y0345473D01*
X0367341Y0345268D01*
X0367358Y0345063D01*
X0367371Y0344857D01*
X0367378Y0344651D01*
X0367381Y0344445D01*
X0367378Y0344239D01*
X0367371Y0344033D01*
X0367358Y0343827D01*
X0367341Y0343622D01*
X0367318Y0343417D01*
X0367291Y0343213D01*
X0367258Y0343009D01*
X0367221Y0342806D01*
X0367178Y0342605D01*
X0367131Y0342404D01*
X0367079Y0342205D01*
X0367021Y0342006D01*
X0366960Y0341810D01*
X0366893Y0341615D01*
X0366821Y0341421D01*
X0366745Y0341230D01*
X0366665Y0341040D01*
X0366579Y0340853D01*
X0366489Y0340667D01*
X0366395Y0340484D01*
X0366296Y0340303D01*
X0366193Y0340125D01*
X0366085Y0339949D01*
X0365973Y0339776D01*
X0365857Y0339605D01*
X0365737Y0339438D01*
X0365613Y0339273D01*
X0365485Y0339112D01*
X0365353Y0338953D01*
X0365217Y0338798D01*
X0365077Y0338647D01*
X0364934Y0338498D01*
X0364787Y0338354D01*
X0364637Y0338213D01*
X0364483Y0338075D01*
X0364326Y0337942D01*
X0364166Y0337812D01*
X0364002Y0337687D01*
X0363836Y0337565D01*
X0363667Y0337447D01*
X0363495Y0337334D01*
X0363320Y0337225D01*
X0363142Y0337120D01*
X0362962Y0337019D01*
X0362780Y0336923D01*
X0362595Y0336831D01*
X0362409Y0336744D01*
X0362220Y0336662D01*
X0362029Y0336584D01*
X0361836Y0336511D01*
X0361642Y0336442D01*
X0361446Y0336379D01*
X0361248Y0336320D01*
X0361049Y0336266D01*
X0360849Y0336216D01*
X0360648Y0336172D01*
X0360445Y0336133D01*
X0360242Y0336098D01*
X0360038Y0336069D01*
X0359833Y0336044D01*
X0359628Y0336025D01*
X0359423Y0336010D01*
X0359217Y0336001D01*
X0359011Y0335996D01*
X0358804Y0335997D01*
X0358598Y0336003D01*
X0358392Y0336013D01*
X0358187Y0336029D01*
X0357982Y0336050D01*
X0358005Y0336234D01*
X0358205Y0336214D01*
X0358406Y0336199D01*
X0358608Y0336188D01*
X0358809Y0336183D01*
X0359011Y0336182D01*
X0359212Y0336187D01*
X0359414Y0336196D01*
X0359615Y0336210D01*
X0359815Y0336229D01*
X0360016Y0336253D01*
X0360215Y0336282D01*
X0360414Y0336316D01*
X0360612Y0336355D01*
X0360808Y0336398D01*
X0361004Y0336446D01*
X0361199Y0336499D01*
X0361392Y0336557D01*
X0361584Y0336619D01*
X0361774Y0336686D01*
X0361962Y0336758D01*
X0362149Y0336834D01*
X0362333Y0336915D01*
X0362516Y0337000D01*
X0362697Y0337089D01*
X0362875Y0337183D01*
X0363051Y0337282D01*
X0363224Y0337384D01*
X0363395Y0337491D01*
X0363564Y0337602D01*
X0363729Y0337717D01*
X0363892Y0337836D01*
X0364052Y0337959D01*
X0364208Y0338086D01*
X0364362Y0338216D01*
X0364512Y0338351D01*
X0364659Y0338489D01*
X0364803Y0338630D01*
X0364943Y0338775D01*
X0365079Y0338923D01*
X0365212Y0339075D01*
X0365341Y0339230D01*
X0365467Y0339388D01*
X0365588Y0339548D01*
X0365705Y0339712D01*
X0365819Y0339879D01*
X0365928Y0340048D01*
X0366033Y0340220D01*
X0366134Y0340395D01*
X0366231Y0340572D01*
X0366323Y0340751D01*
X0366411Y0340932D01*
X0366495Y0341116D01*
X0366574Y0341301D01*
X0366648Y0341488D01*
X0366718Y0341678D01*
X0366783Y0341868D01*
X0366843Y0342061D01*
X0366899Y0342254D01*
X0366950Y0342449D01*
X0366997Y0342645D01*
X0367038Y0342843D01*
X0367075Y0343041D01*
X0367107Y0343240D01*
X0367134Y0343440D01*
X0367156Y0343640D01*
X0367173Y0343841D01*
X0367185Y0344042D01*
X0367193Y0344243D01*
X0367195Y0344445D01*
X0367193Y0344647D01*
X0367185Y0344848D01*
X0367173Y0345049D01*
X0367156Y0345250D01*
X0367134Y0345450D01*
X0367107Y0345650D01*
X0367075Y0345849D01*
X0367038Y0346047D01*
X0366997Y0346245D01*
X0366950Y0346441D01*
X0366899Y0346636D01*
X0366843Y0346829D01*
X0366783Y0347022D01*
X0366718Y0347212D01*
X0366648Y0347402D01*
X0366574Y0347589D01*
X0366495Y0347774D01*
X0366411Y0347958D01*
X0366323Y0348139D01*
X0366231Y0348318D01*
X0366134Y0348495D01*
X0366033Y0348670D01*
X0365928Y0348842D01*
X0365819Y0349011D01*
X0365705Y0349178D01*
X0365588Y0349342D01*
X0365467Y0349502D01*
X0365341Y0349660D01*
X0365212Y0349815D01*
X0365079Y0349967D01*
X0364943Y0350115D01*
X0364803Y0350260D01*
X0364659Y0350401D01*
X0364512Y0350539D01*
X0364362Y0350674D01*
X0364208Y0350804D01*
X0364052Y0350931D01*
X0363892Y0351054D01*
X0363729Y0351173D01*
X0363564Y0351288D01*
X0363395Y0351399D01*
X0363224Y0351506D01*
X0363051Y0351608D01*
X0362875Y0351707D01*
X0362697Y0351801D01*
X0362516Y0351890D01*
X0362333Y0351975D01*
X0362149Y0352056D01*
X0361962Y0352132D01*
X0361774Y0352204D01*
X0361584Y0352271D01*
X0361392Y0352333D01*
X0361199Y0352391D01*
X0361004Y0352444D01*
X0360808Y0352492D01*
X0360612Y0352535D01*
X0360414Y0352574D01*
X0360215Y0352608D01*
X0360016Y0352637D01*
X0359815Y0352661D01*
X0359615Y0352680D01*
X0359414Y0352694D01*
X0359212Y0352703D01*
X0359011Y0352708D01*
X0358809Y0352707D01*
X0358608Y0352702D01*
X0358406Y0352691D01*
X0358205Y0352676D01*
X0358005Y0352656D01*
X0358028Y0352471D01*
X0358224Y0352491D01*
X0358420Y0352506D01*
X0358617Y0352516D01*
X0358814Y0352521D01*
X0359011Y0352522D01*
X0359208Y0352517D01*
X0359405Y0352508D01*
X0359601Y0352494D01*
X0359797Y0352475D01*
X0359993Y0352452D01*
X0360188Y0352424D01*
X0360382Y0352391D01*
X0360576Y0352353D01*
X0360768Y0352311D01*
X0360959Y0352263D01*
X0361149Y0352212D01*
X0361338Y0352155D01*
X0361525Y0352094D01*
X0361711Y0352029D01*
X0361895Y0351959D01*
X0362078Y0351884D01*
X0362258Y0351805D01*
X0362437Y0351722D01*
X0362613Y0351634D01*
X0362787Y0351542D01*
X0362959Y0351446D01*
X0363129Y0351346D01*
X0363296Y0351242D01*
X0363460Y0351133D01*
X0363622Y0351021D01*
X0363781Y0350904D01*
X0363937Y0350784D01*
X0364090Y0350660D01*
X0364240Y0350533D01*
X0364387Y0350401D01*
X0364531Y0350267D01*
X0364671Y0350128D01*
X0364808Y0349987D01*
X0364941Y0349842D01*
X0365071Y0349693D01*
X0365198Y0349542D01*
X0365320Y0349388D01*
X0365439Y0349231D01*
X0365553Y0349071D01*
X0365664Y0348908D01*
X0365771Y0348742D01*
X0365874Y0348574D01*
X0365972Y0348404D01*
X0366067Y0348231D01*
X0366157Y0348056D01*
X0366243Y0347878D01*
X0366325Y0347699D01*
X0366402Y0347518D01*
X0366474Y0347335D01*
X0366543Y0347150D01*
X0366606Y0346963D01*
X0366665Y0346775D01*
X0366720Y0346586D01*
X0366770Y0346396D01*
X0366815Y0346204D01*
X0366856Y0346011D01*
X0366892Y0345817D01*
X0366923Y0345623D01*
X0366949Y0345428D01*
X0366971Y0345232D01*
X0366987Y0345035D01*
X0366999Y0344839D01*
X0367007Y0344642D01*
X0367009Y0344445D01*
X0367007Y0344248D01*
X0366999Y0344051D01*
X0366987Y0343855D01*
X0366971Y0343658D01*
X0366949Y0343462D01*
X0366923Y0343267D01*
X0366892Y0343073D01*
X0366856Y0342879D01*
X0366815Y0342686D01*
X0366770Y0342494D01*
X0366720Y0342304D01*
X0366665Y0342115D01*
X0366606Y0341927D01*
X0366543Y0341740D01*
X0366474Y0341555D01*
X0366402Y0341372D01*
X0366325Y0341191D01*
X0366243Y0341012D01*
X0366157Y0340834D01*
X0366067Y0340659D01*
X0365972Y0340486D01*
X0365874Y0340316D01*
X0365771Y0340148D01*
X0365664Y0339982D01*
X0365553Y0339819D01*
X0365439Y0339659D01*
X0365320Y0339502D01*
X0365198Y0339348D01*
X0365071Y0339197D01*
X0364941Y0339048D01*
X0364808Y0338903D01*
X0364671Y0338762D01*
X0364531Y0338623D01*
X0364387Y0338489D01*
X0364240Y0338357D01*
X0364090Y0338230D01*
X0363937Y0338106D01*
X0363781Y0337986D01*
X0363622Y0337869D01*
X0363460Y0337757D01*
X0363296Y0337648D01*
X0363129Y0337544D01*
X0362959Y0337444D01*
X0362787Y0337348D01*
X0362613Y0337256D01*
X0362437Y0337168D01*
X0362258Y0337085D01*
X0362078Y0337006D01*
X0361895Y0336931D01*
X0361711Y0336861D01*
X0361525Y0336796D01*
X0361338Y0336735D01*
X0361149Y0336678D01*
X0360959Y0336627D01*
X0360768Y0336579D01*
X0360576Y0336537D01*
X0360382Y0336499D01*
X0360188Y0336466D01*
X0359993Y0336438D01*
X0359797Y0336415D01*
X0359601Y0336396D01*
X0359405Y0336382D01*
X0359208Y0336373D01*
X0359011Y0336368D01*
X0358814Y0336369D01*
X0358617Y0336374D01*
X0358420Y0336384D01*
X0358224Y0336399D01*
X0358028Y0336419D01*
X0358051Y0336603D01*
X0358243Y0336584D01*
X0358434Y0336570D01*
X0358627Y0336560D01*
X0358819Y0336555D01*
X0359011Y0336554D01*
X0359204Y0336559D01*
X0359396Y0336568D01*
X0359588Y0336581D01*
X0359779Y0336600D01*
X0359971Y0336623D01*
X0360161Y0336650D01*
X0360351Y0336683D01*
X0360540Y0336719D01*
X0360727Y0336761D01*
X0360914Y0336807D01*
X0361100Y0336858D01*
X0361284Y0336913D01*
X0361467Y0336972D01*
X0361649Y0337036D01*
X0361829Y0337105D01*
X0362007Y0337178D01*
X0362183Y0337255D01*
X0362357Y0337336D01*
X0362530Y0337422D01*
X0362700Y0337512D01*
X0362868Y0337606D01*
X0363033Y0337704D01*
X0363197Y0337806D01*
X0363357Y0337912D01*
X0363515Y0338021D01*
X0363670Y0338135D01*
X0363823Y0338252D01*
X0363972Y0338374D01*
X0364119Y0338498D01*
X0364262Y0338627D01*
X0364403Y0338758D01*
X0364540Y0338893D01*
X0364673Y0339032D01*
X0364804Y0339173D01*
X0364931Y0339318D01*
X0365054Y0339466D01*
X0365173Y0339617D01*
X0365289Y0339770D01*
X0365401Y0339927D01*
X0365510Y0340086D01*
X0365614Y0340247D01*
X0365714Y0340412D01*
X0365811Y0340578D01*
X0365903Y0340747D01*
X0365991Y0340918D01*
X0366075Y0341091D01*
X0366155Y0341267D01*
X0366230Y0341444D01*
X0366301Y0341622D01*
X0366368Y0341803D01*
X0366430Y0341985D01*
X0366488Y0342169D01*
X0366541Y0342354D01*
X0366590Y0342540D01*
X0366634Y0342727D01*
X0366673Y0342915D01*
X0366708Y0343104D01*
X0366739Y0343295D01*
X0366764Y0343485D01*
X0366785Y0343676D01*
X0366802Y0343868D01*
X0366814Y0344060D01*
X0366821Y0344253D01*
X0366823Y0344445D01*
X0366821Y0344637D01*
X0366814Y0344830D01*
X0366802Y0345022D01*
X0366785Y0345214D01*
X0366764Y0345405D01*
X0366739Y0345595D01*
X0366708Y0345786D01*
X0366673Y0345975D01*
X0366634Y0346163D01*
X0366590Y0346350D01*
X0366541Y0346536D01*
X0366488Y0346721D01*
X0366430Y0346905D01*
X0366368Y0347087D01*
X0366301Y0347268D01*
X0366230Y0347446D01*
X0366155Y0347623D01*
X0366075Y0347799D01*
X0365991Y0347972D01*
X0365903Y0348143D01*
X0365811Y0348312D01*
X0365714Y0348478D01*
X0365614Y0348643D01*
X0365510Y0348804D01*
X0365401Y0348963D01*
X0365289Y0349120D01*
X0365173Y0349273D01*
X0365054Y0349424D01*
X0364931Y0349572D01*
X0364804Y0349717D01*
X0364673Y0349858D01*
X0364540Y0349997D01*
X0364403Y0350132D01*
X0364262Y0350263D01*
X0364119Y0350392D01*
X0363972Y0350516D01*
X0363823Y0350638D01*
X0363670Y0350755D01*
X0363515Y0350869D01*
X0363357Y0350978D01*
X0363197Y0351084D01*
X0363033Y0351186D01*
X0362868Y0351284D01*
X0362700Y0351378D01*
X0362530Y0351468D01*
X0362357Y0351554D01*
X0362183Y0351635D01*
X0362007Y0351712D01*
X0361829Y0351785D01*
X0361649Y0351854D01*
X0361467Y0351918D01*
X0361284Y0351977D01*
X0361100Y0352032D01*
X0360914Y0352083D01*
X0360727Y0352129D01*
X0360540Y0352171D01*
X0360351Y0352207D01*
X0360161Y0352240D01*
X0359971Y0352267D01*
X0359779Y0352290D01*
X0359588Y0352309D01*
X0359396Y0352322D01*
X0359204Y0352331D01*
X0359011Y0352336D01*
X0358819Y0352335D01*
X0358627Y0352330D01*
X0358434Y0352320D01*
X0358243Y0352306D01*
X0358051Y0352287D01*
X0358074Y0352102D01*
X0358261Y0352121D01*
X0358448Y0352135D01*
X0358636Y0352144D01*
X0358824Y0352149D01*
X0359012Y0352150D01*
X0359199Y0352145D01*
X0359387Y0352137D01*
X0359575Y0352123D01*
X0359762Y0352105D01*
X0359948Y0352083D01*
X0360134Y0352056D01*
X0360319Y0352024D01*
X0360503Y0351988D01*
X0360687Y0351947D01*
X0360869Y0351902D01*
X0361051Y0351853D01*
X0361231Y0351799D01*
X0361409Y0351741D01*
X0361586Y0351678D01*
X0361762Y0351612D01*
X0361936Y0351540D01*
X0362108Y0351465D01*
X0362278Y0351386D01*
X0362446Y0351302D01*
X0362612Y0351214D01*
X0362776Y0351122D01*
X0362938Y0351027D01*
X0363097Y0350927D01*
X0363254Y0350824D01*
X0363408Y0350716D01*
X0363560Y0350605D01*
X0363709Y0350491D01*
X0363855Y0350373D01*
X0363998Y0350251D01*
X0364138Y0350126D01*
X0364275Y0349997D01*
X0364408Y0349865D01*
X0364539Y0349730D01*
X0364666Y0349592D01*
X0364790Y0349450D01*
X0364910Y0349306D01*
X0365027Y0349159D01*
X0365140Y0349009D01*
X0365249Y0348856D01*
X0365355Y0348701D01*
X0365457Y0348543D01*
X0365555Y0348383D01*
X0365649Y0348220D01*
X0365739Y0348055D01*
X0365825Y0347888D01*
X0365907Y0347719D01*
X0365985Y0347548D01*
X0366058Y0347375D01*
X0366127Y0347201D01*
X0366192Y0347024D01*
X0366253Y0346847D01*
X0366310Y0346667D01*
X0366362Y0346487D01*
X0366409Y0346305D01*
X0366452Y0346122D01*
X0366491Y0345938D01*
X0366525Y0345754D01*
X0366555Y0345568D01*
X0366580Y0345382D01*
X0366600Y0345195D01*
X0366616Y0345008D01*
X0366628Y0344821D01*
X0366635Y0344633D01*
X0366637Y0344445D01*
X0366635Y0344257D01*
X0366628Y0344069D01*
X0366616Y0343882D01*
X0366600Y0343695D01*
X0366580Y0343508D01*
X0366555Y0343322D01*
X0366525Y0343136D01*
X0366491Y0342952D01*
X0366452Y0342768D01*
X0366409Y0342585D01*
X0366362Y0342403D01*
X0366310Y0342223D01*
X0366253Y0342043D01*
X0366192Y0341866D01*
X0366127Y0341689D01*
X0366058Y0341515D01*
X0365985Y0341342D01*
X0365907Y0341171D01*
X0365825Y0341002D01*
X0365739Y0340835D01*
X0365649Y0340670D01*
X0365555Y0340507D01*
X0365457Y0340347D01*
X0365355Y0340189D01*
X0365249Y0340034D01*
X0365140Y0339881D01*
X0365027Y0339731D01*
X0364910Y0339584D01*
X0364790Y0339440D01*
X0364666Y0339298D01*
X0364539Y0339160D01*
X0364408Y0339025D01*
X0364275Y0338893D01*
X0364138Y0338764D01*
X0363998Y0338639D01*
X0363855Y0338517D01*
X0363709Y0338399D01*
X0363560Y0338285D01*
X0363408Y0338174D01*
X0363254Y0338066D01*
X0363097Y0337963D01*
X0362938Y0337863D01*
X0362776Y0337768D01*
X0362612Y0337676D01*
X0362446Y0337588D01*
X0362278Y0337504D01*
X0362108Y0337425D01*
X0361936Y0337350D01*
X0361762Y0337278D01*
X0361586Y0337212D01*
X0361409Y0337149D01*
X0361231Y0337091D01*
X0361051Y0337037D01*
X0360869Y0336988D01*
X0360687Y0336943D01*
X0360503Y0336902D01*
X0360319Y0336866D01*
X0360134Y0336834D01*
X0359948Y0336807D01*
X0359762Y0336785D01*
X0359575Y0336767D01*
X0359387Y0336753D01*
X0359199Y0336745D01*
X0359012Y0336740D01*
X0358824Y0336741D01*
X0358636Y0336746D01*
X0358448Y0336755D01*
X0358261Y0336769D01*
X0358074Y0336788D01*
X0358097Y0336972D01*
X0358280Y0336954D01*
X0358462Y0336941D01*
X0358645Y0336931D01*
X0358829Y0336927D01*
X0359012Y0336926D01*
X0359195Y0336931D01*
X0359378Y0336939D01*
X0359561Y0336952D01*
X0359744Y0336970D01*
X0359926Y0336992D01*
X0360107Y0337018D01*
X0360288Y0337049D01*
X0360467Y0337084D01*
X0360646Y0337124D01*
X0360824Y0337168D01*
X0361001Y0337216D01*
X0361177Y0337269D01*
X0361351Y0337326D01*
X0361524Y0337387D01*
X0361695Y0337452D01*
X0361865Y0337522D01*
X0362033Y0337595D01*
X0362199Y0337673D01*
X0362363Y0337754D01*
X0362525Y0337840D01*
X0362685Y0337929D01*
X0362842Y0338023D01*
X0362998Y0338120D01*
X0363151Y0338221D01*
X0363301Y0338326D01*
X0363449Y0338434D01*
X0363594Y0338546D01*
X0363737Y0338661D01*
X0363876Y0338780D01*
X0364013Y0338902D01*
X0364146Y0339028D01*
X0364277Y0339157D01*
X0364404Y0339288D01*
X0364528Y0339423D01*
X0364649Y0339561D01*
X0364766Y0339702D01*
X0364880Y0339846D01*
X0364991Y0339992D01*
X0365097Y0340141D01*
X0365200Y0340293D01*
X0365300Y0340447D01*
X0365395Y0340603D01*
X0365487Y0340762D01*
X0365575Y0340923D01*
X0365659Y0341086D01*
X0365739Y0341251D01*
X0365815Y0341417D01*
X0365886Y0341586D01*
X0365954Y0341756D01*
X0366017Y0341928D01*
X0366077Y0342102D01*
X0366132Y0342277D01*
X0366182Y0342453D01*
X0366229Y0342630D01*
X0366271Y0342809D01*
X0366308Y0342988D01*
X0366342Y0343168D01*
X0366371Y0343349D01*
X0366395Y0343531D01*
X0366415Y0343713D01*
X0366431Y0343896D01*
X0366442Y0344079D01*
X0366449Y0344262D01*
X0366451Y0344445D01*
X0366449Y0344628D01*
X0366442Y0344811D01*
X0366431Y0344994D01*
X0366415Y0345177D01*
X0366395Y0345359D01*
X0366371Y0345541D01*
X0366342Y0345722D01*
X0366308Y0345902D01*
X0366271Y0346081D01*
X0366229Y0346260D01*
X0366182Y0346437D01*
X0366132Y0346613D01*
X0366077Y0346788D01*
X0366017Y0346962D01*
X0365954Y0347134D01*
X0365886Y0347304D01*
X0365815Y0347473D01*
X0365739Y0347639D01*
X0365659Y0347804D01*
X0365575Y0347967D01*
X0365487Y0348128D01*
X0365395Y0348287D01*
X0365300Y0348443D01*
X0365200Y0348597D01*
X0365097Y0348749D01*
X0364991Y0348898D01*
X0364880Y0349044D01*
X0364766Y0349188D01*
X0364649Y0349329D01*
X0364528Y0349467D01*
X0364404Y0349602D01*
X0364277Y0349733D01*
X0364146Y0349862D01*
X0364013Y0349988D01*
X0363876Y0350110D01*
X0363737Y0350229D01*
X0363594Y0350344D01*
X0363449Y0350456D01*
X0363301Y0350564D01*
X0363151Y0350669D01*
X0362998Y0350770D01*
X0362842Y0350867D01*
X0362685Y0350961D01*
X0362525Y0351050D01*
X0362363Y0351136D01*
X0362199Y0351217D01*
X0362033Y0351295D01*
X0361865Y0351368D01*
X0361695Y0351438D01*
X0361524Y0351503D01*
X0361351Y0351564D01*
X0361177Y0351621D01*
X0361001Y0351674D01*
X0360824Y0351722D01*
X0360646Y0351766D01*
X0360467Y0351806D01*
X0360288Y0351841D01*
X0360107Y0351872D01*
X0359926Y0351898D01*
X0359744Y0351920D01*
X0359561Y0351938D01*
X0359378Y0351951D01*
X0359195Y0351959D01*
X0359012Y0351964D01*
X0358829Y0351963D01*
X0358645Y0351959D01*
X0358462Y0351949D01*
X0358280Y0351936D01*
X0358097Y0351918D01*
X0358120Y0351733D01*
X0358298Y0351751D01*
X0358476Y0351764D01*
X0358655Y0351773D01*
X0358834Y0351777D01*
X0359012Y0351778D01*
X0359191Y0351773D01*
X0359369Y0351765D01*
X0359548Y0351752D01*
X0359726Y0351735D01*
X0359903Y0351713D01*
X0360080Y0351688D01*
X0360256Y0351657D01*
X0360431Y0351623D01*
X0360606Y0351584D01*
X0360779Y0351541D01*
X0360952Y0351494D01*
X0361123Y0351443D01*
X0361293Y0351388D01*
X0361461Y0351328D01*
X0361628Y0351264D01*
X0361794Y0351197D01*
X0361957Y0351125D01*
X0362119Y0351049D01*
X0362279Y0350969D01*
X0362437Y0350886D01*
X0362593Y0350799D01*
X0362747Y0350707D01*
X0362898Y0350613D01*
X0363048Y0350514D01*
X0363194Y0350412D01*
X0363338Y0350306D01*
X0363480Y0350197D01*
X0363619Y0350085D01*
X0363755Y0349969D01*
X0363888Y0349850D01*
X0364018Y0349727D01*
X0364146Y0349602D01*
X0364270Y0349473D01*
X0364391Y0349342D01*
X0364508Y0349207D01*
X0364623Y0349070D01*
X0364734Y0348930D01*
X0364841Y0348787D01*
X0364945Y0348642D01*
X0365046Y0348494D01*
X0365143Y0348344D01*
X0365236Y0348191D01*
X0365325Y0348036D01*
X0365411Y0347880D01*
X0365493Y0347721D01*
X0365571Y0347560D01*
X0365645Y0347397D01*
X0365714Y0347233D01*
X0365780Y0347067D01*
X0365842Y0346899D01*
X0365900Y0346730D01*
X0365954Y0346559D01*
X0366003Y0346388D01*
X0366048Y0346215D01*
X0366089Y0346041D01*
X0366126Y0345866D01*
X0366159Y0345690D01*
X0366187Y0345514D01*
X0366211Y0345336D01*
X0366230Y0345159D01*
X0366245Y0344981D01*
X0366256Y0344802D01*
X0366263Y0344624D01*
X0366265Y0344445D01*
X0366263Y0344266D01*
X0366256Y0344088D01*
X0366245Y0343909D01*
X0366230Y0343731D01*
X0366211Y0343554D01*
X0366187Y0343376D01*
X0366159Y0343200D01*
X0366126Y0343024D01*
X0366089Y0342849D01*
X0366048Y0342675D01*
X0366003Y0342502D01*
X0365954Y0342331D01*
X0365900Y0342160D01*
X0365842Y0341991D01*
X0365780Y0341823D01*
X0365714Y0341657D01*
X0365645Y0341493D01*
X0365571Y0341330D01*
X0365493Y0341169D01*
X0365411Y0341010D01*
X0365325Y0340854D01*
X0365236Y0340699D01*
X0365143Y0340546D01*
X0365046Y0340396D01*
X0364945Y0340248D01*
X0364841Y0340103D01*
X0364734Y0339960D01*
X0364623Y0339820D01*
X0364508Y0339683D01*
X0364391Y0339548D01*
X0364270Y0339417D01*
X0364146Y0339288D01*
X0364018Y0339163D01*
X0363888Y0339040D01*
X0363755Y0338921D01*
X0363619Y0338805D01*
X0363480Y0338693D01*
X0363338Y0338584D01*
X0363194Y0338478D01*
X0363048Y0338376D01*
X0362898Y0338277D01*
X0362747Y0338183D01*
X0362593Y0338091D01*
X0362437Y0338004D01*
X0362279Y0337921D01*
X0362119Y0337841D01*
X0361957Y0337765D01*
X0361794Y0337693D01*
X0361628Y0337626D01*
X0361461Y0337562D01*
X0361293Y0337502D01*
X0361123Y0337447D01*
X0360952Y0337396D01*
X0360779Y0337349D01*
X0360606Y0337306D01*
X0360431Y0337267D01*
X0360256Y0337233D01*
X0360080Y0337202D01*
X0359903Y0337177D01*
X0359726Y0337155D01*
X0359548Y0337138D01*
X0359369Y0337125D01*
X0359191Y0337117D01*
X0359012Y0337112D01*
X0358834Y0337113D01*
X0358655Y0337117D01*
X0358476Y0337126D01*
X0358298Y0337139D01*
X0358120Y0337157D01*
X0358143Y0337342D01*
X0358317Y0337325D01*
X0358490Y0337312D01*
X0358664Y0337303D01*
X0358838Y0337299D01*
X0359013Y0337298D01*
X0359187Y0337303D01*
X0359361Y0337311D01*
X0359534Y0337323D01*
X0359708Y0337340D01*
X0359880Y0337361D01*
X0360053Y0337386D01*
X0360224Y0337416D01*
X0360395Y0337449D01*
X0360565Y0337487D01*
X0360734Y0337529D01*
X0360902Y0337575D01*
X0361069Y0337625D01*
X0361235Y0337679D01*
X0361399Y0337737D01*
X0361562Y0337799D01*
X0361723Y0337865D01*
X0361882Y0337935D01*
X0362040Y0338009D01*
X0362196Y0338087D01*
X0362350Y0338168D01*
X0362502Y0338253D01*
X0362652Y0338342D01*
X0362799Y0338435D01*
X0362944Y0338531D01*
X0363087Y0338630D01*
X0363228Y0338733D01*
X0363366Y0338839D01*
X0363501Y0338949D01*
X0363633Y0339062D01*
X0363763Y0339178D01*
X0363890Y0339298D01*
X0364014Y0339420D01*
X0364135Y0339545D01*
X0364253Y0339673D01*
X0364368Y0339804D01*
X0364479Y0339938D01*
X0364587Y0340075D01*
X0364692Y0340214D01*
X0364793Y0340355D01*
X0364891Y0340499D01*
X0364986Y0340646D01*
X0365076Y0340794D01*
X0365163Y0340945D01*
X0365247Y0341098D01*
X0365327Y0341253D01*
X0365402Y0341410D01*
X0365474Y0341568D01*
X0365543Y0341729D01*
X0365607Y0341890D01*
X0365667Y0342054D01*
X0365723Y0342219D01*
X0365776Y0342385D01*
X0365824Y0342552D01*
X0365868Y0342721D01*
X0365908Y0342890D01*
X0365944Y0343061D01*
X0365975Y0343232D01*
X0366003Y0343404D01*
X0366026Y0343576D01*
X0366045Y0343749D01*
X0366060Y0343923D01*
X0366071Y0344097D01*
X0366077Y0344271D01*
X0366079Y0344445D01*
X0366077Y0344619D01*
X0366071Y0344793D01*
X0366060Y0344967D01*
X0366045Y0345141D01*
X0366026Y0345314D01*
X0366003Y0345486D01*
X0365975Y0345658D01*
X0365944Y0345829D01*
X0365908Y0346000D01*
X0365868Y0346169D01*
X0365824Y0346338D01*
X0365776Y0346505D01*
X0365723Y0346671D01*
X0365667Y0346836D01*
X0365607Y0347000D01*
X0365543Y0347161D01*
X0365474Y0347322D01*
X0365402Y0347480D01*
X0365327Y0347637D01*
X0365247Y0347792D01*
X0365163Y0347945D01*
X0365076Y0348096D01*
X0364986Y0348244D01*
X0364891Y0348391D01*
X0364793Y0348535D01*
X0364692Y0348676D01*
X0364587Y0348815D01*
X0364479Y0348952D01*
X0364368Y0349086D01*
X0364253Y0349217D01*
X0364135Y0349345D01*
X0364014Y0349470D01*
X0363890Y0349592D01*
X0363763Y0349712D01*
X0363633Y0349828D01*
X0363501Y0349941D01*
X0363366Y0350051D01*
X0363228Y0350157D01*
X0363087Y0350260D01*
X0362944Y0350359D01*
X0362799Y0350455D01*
X0362652Y0350548D01*
X0362502Y0350637D01*
X0362350Y0350722D01*
X0362196Y0350803D01*
X0362040Y0350881D01*
X0361882Y0350955D01*
X0361723Y0351025D01*
X0361562Y0351091D01*
X0361399Y0351153D01*
X0361235Y0351211D01*
X0361069Y0351265D01*
X0360902Y0351315D01*
X0360734Y0351361D01*
X0360565Y0351403D01*
X0360395Y0351441D01*
X0360224Y0351474D01*
X0360053Y0351504D01*
X0359880Y0351529D01*
X0359708Y0351550D01*
X0359534Y0351567D01*
X0359361Y0351579D01*
X0359187Y0351587D01*
X0359013Y0351592D01*
X0358838Y0351591D01*
X0358664Y0351587D01*
X0358490Y0351578D01*
X0358317Y0351565D01*
X0358143Y0351548D01*
M02*
