G75*
%MOIN*%
%OFA0B0*%
%FSLAX25Y25*%
%IPPOS*%
%LPD*%
%AMOC8*
5,1,8,0,0,1.08239X$1,22.5*
%
%ADD10C,0.00600*%
%ADD11C,0.00787*%
D10*
X0048775Y0056177D02*
X0048775Y0071925D01*
X0068460Y0071925D01*
X0068460Y0056177D01*
X0048775Y0056177D01*
X0048775Y0056496D02*
X0068460Y0056496D01*
X0068460Y0057094D02*
X0048775Y0057094D01*
X0048775Y0057693D02*
X0068460Y0057693D01*
X0068460Y0058291D02*
X0066791Y0058291D01*
X0066791Y0058021D02*
X0066616Y0057846D01*
X0050619Y0057846D01*
X0050443Y0058021D01*
X0050443Y0070081D01*
X0050619Y0070257D01*
X0066616Y0070257D01*
X0066791Y0070081D01*
X0066791Y0058021D01*
X0066791Y0058890D02*
X0068460Y0058890D01*
X0068460Y0059488D02*
X0066791Y0059488D01*
X0066791Y0060087D02*
X0068460Y0060087D01*
X0068460Y0060685D02*
X0066791Y0060685D01*
X0066791Y0061284D02*
X0068460Y0061284D01*
X0068460Y0061882D02*
X0066791Y0061882D01*
X0066791Y0062481D02*
X0068460Y0062481D01*
X0068460Y0063079D02*
X0066791Y0063079D01*
X0066791Y0063678D02*
X0068460Y0063678D01*
X0068460Y0064276D02*
X0066791Y0064276D01*
X0066791Y0064875D02*
X0068460Y0064875D01*
X0068460Y0065473D02*
X0066791Y0065473D01*
X0066791Y0066072D02*
X0068460Y0066072D01*
X0068460Y0066670D02*
X0066791Y0066670D01*
X0066791Y0067269D02*
X0068460Y0067269D01*
X0068460Y0067867D02*
X0066791Y0067867D01*
X0066791Y0068466D02*
X0068460Y0068466D01*
X0068460Y0069064D02*
X0066791Y0069064D01*
X0066791Y0069663D02*
X0068460Y0069663D01*
X0068460Y0070261D02*
X0048775Y0070261D01*
X0048775Y0069663D02*
X0050443Y0069663D01*
X0050443Y0069064D02*
X0048775Y0069064D01*
X0048775Y0068466D02*
X0050443Y0068466D01*
X0050443Y0067867D02*
X0048775Y0067867D01*
X0048775Y0067269D02*
X0050443Y0067269D01*
X0050443Y0066670D02*
X0048775Y0066670D01*
X0048775Y0066072D02*
X0050443Y0066072D01*
X0050443Y0065473D02*
X0048775Y0065473D01*
X0048775Y0064875D02*
X0050443Y0064875D01*
X0050443Y0064276D02*
X0048775Y0064276D01*
X0048775Y0063678D02*
X0050443Y0063678D01*
X0050443Y0063079D02*
X0048775Y0063079D01*
X0048775Y0062481D02*
X0050443Y0062481D01*
X0050443Y0061882D02*
X0048775Y0061882D01*
X0048775Y0061284D02*
X0050443Y0061284D01*
X0050443Y0060685D02*
X0048775Y0060685D01*
X0048775Y0060087D02*
X0050443Y0060087D01*
X0050443Y0059488D02*
X0048775Y0059488D01*
X0048775Y0058890D02*
X0050443Y0058890D01*
X0050443Y0058291D02*
X0048775Y0058291D01*
X0048775Y0070860D02*
X0068460Y0070860D01*
X0068460Y0071458D02*
X0048775Y0071458D01*
X0134043Y0269013D02*
X0133421Y0269303D01*
X0132858Y0269697D01*
X0132373Y0270182D01*
X0131980Y0270744D01*
X0131689Y0271366D01*
X0131512Y0272029D01*
X0131452Y0272713D01*
X0131452Y0382286D01*
X0312554Y0382286D01*
X0312554Y0272713D01*
X0312495Y0272029D01*
X0312317Y0271366D01*
X0312027Y0270744D01*
X0311633Y0270182D01*
X0311148Y0269697D01*
X0310586Y0269303D01*
X0309964Y0269013D01*
X0309301Y0268835D01*
X0308617Y0268776D01*
X0135389Y0268776D01*
X0134705Y0268835D01*
X0134043Y0269013D01*
X0134214Y0268967D02*
X0309793Y0268967D01*
X0310961Y0269566D02*
X0133046Y0269566D01*
X0132391Y0270164D02*
X0311615Y0270164D01*
X0312036Y0270763D02*
X0131971Y0270763D01*
X0131692Y0271361D02*
X0312315Y0271361D01*
X0312476Y0271960D02*
X0131530Y0271960D01*
X0131466Y0272558D02*
X0237481Y0272558D01*
X0237451Y0272588D02*
X0237627Y0272413D01*
X0285120Y0272413D01*
X0285295Y0272588D01*
X0285295Y0371262D01*
X0285120Y0371438D01*
X0237627Y0371438D01*
X0237451Y0371262D01*
X0237451Y0272588D01*
X0237451Y0273157D02*
X0131452Y0273157D01*
X0131452Y0273755D02*
X0237451Y0273755D01*
X0237451Y0274354D02*
X0131452Y0274354D01*
X0131452Y0274952D02*
X0237451Y0274952D01*
X0237451Y0275551D02*
X0131452Y0275551D01*
X0131452Y0276149D02*
X0237451Y0276149D01*
X0237451Y0276748D02*
X0131452Y0276748D01*
X0131452Y0277346D02*
X0237451Y0277346D01*
X0237451Y0277945D02*
X0131452Y0277945D01*
X0131452Y0278543D02*
X0237451Y0278543D01*
X0237451Y0279142D02*
X0131452Y0279142D01*
X0131452Y0279740D02*
X0237451Y0279740D01*
X0237451Y0280339D02*
X0131452Y0280339D01*
X0131452Y0280937D02*
X0237451Y0280937D01*
X0237451Y0281536D02*
X0131452Y0281536D01*
X0131452Y0282134D02*
X0237451Y0282134D01*
X0237451Y0282733D02*
X0131452Y0282733D01*
X0131452Y0283331D02*
X0237451Y0283331D01*
X0237451Y0283930D02*
X0131452Y0283930D01*
X0131452Y0284528D02*
X0237451Y0284528D01*
X0237451Y0285127D02*
X0131452Y0285127D01*
X0131452Y0285725D02*
X0237451Y0285725D01*
X0237451Y0286324D02*
X0131452Y0286324D01*
X0131452Y0286922D02*
X0237451Y0286922D01*
X0237451Y0287521D02*
X0131452Y0287521D01*
X0131452Y0288119D02*
X0237451Y0288119D01*
X0237451Y0288718D02*
X0131452Y0288718D01*
X0131452Y0289316D02*
X0237451Y0289316D01*
X0237451Y0289915D02*
X0131452Y0289915D01*
X0131452Y0290513D02*
X0237451Y0290513D01*
X0237451Y0291112D02*
X0131452Y0291112D01*
X0131452Y0291711D02*
X0237451Y0291711D01*
X0237451Y0292309D02*
X0131452Y0292309D01*
X0131452Y0292908D02*
X0237451Y0292908D01*
X0237451Y0293506D02*
X0131452Y0293506D01*
X0131452Y0294105D02*
X0237451Y0294105D01*
X0237451Y0294703D02*
X0131452Y0294703D01*
X0131452Y0295302D02*
X0237451Y0295302D01*
X0237451Y0295900D02*
X0131452Y0295900D01*
X0131452Y0296499D02*
X0237451Y0296499D01*
X0237451Y0297097D02*
X0131452Y0297097D01*
X0131452Y0297696D02*
X0237451Y0297696D01*
X0237451Y0298294D02*
X0131452Y0298294D01*
X0131452Y0298893D02*
X0237451Y0298893D01*
X0237451Y0299491D02*
X0131452Y0299491D01*
X0131452Y0300090D02*
X0237451Y0300090D01*
X0237451Y0300688D02*
X0131452Y0300688D01*
X0131452Y0301287D02*
X0237451Y0301287D01*
X0237451Y0301885D02*
X0131452Y0301885D01*
X0131452Y0302484D02*
X0237451Y0302484D01*
X0237451Y0303082D02*
X0131452Y0303082D01*
X0131452Y0303681D02*
X0237451Y0303681D01*
X0237451Y0304279D02*
X0131452Y0304279D01*
X0131452Y0304878D02*
X0237451Y0304878D01*
X0237451Y0305476D02*
X0131452Y0305476D01*
X0131452Y0306075D02*
X0237451Y0306075D01*
X0237451Y0306673D02*
X0131452Y0306673D01*
X0131452Y0307272D02*
X0237451Y0307272D01*
X0237451Y0307870D02*
X0131452Y0307870D01*
X0131452Y0308469D02*
X0237451Y0308469D01*
X0237451Y0309067D02*
X0131452Y0309067D01*
X0131452Y0309666D02*
X0237451Y0309666D01*
X0237451Y0310264D02*
X0131452Y0310264D01*
X0131452Y0310863D02*
X0237451Y0310863D01*
X0237451Y0311461D02*
X0131452Y0311461D01*
X0131452Y0312060D02*
X0237451Y0312060D01*
X0237451Y0312658D02*
X0131452Y0312658D01*
X0131452Y0313257D02*
X0237451Y0313257D01*
X0237451Y0313855D02*
X0131452Y0313855D01*
X0131452Y0314454D02*
X0237451Y0314454D01*
X0237451Y0315052D02*
X0131452Y0315052D01*
X0131452Y0315651D02*
X0237451Y0315651D01*
X0237451Y0316249D02*
X0131452Y0316249D01*
X0131452Y0316848D02*
X0237451Y0316848D01*
X0237451Y0317447D02*
X0131452Y0317447D01*
X0131452Y0318045D02*
X0237451Y0318045D01*
X0237451Y0318644D02*
X0131452Y0318644D01*
X0131452Y0319242D02*
X0237451Y0319242D01*
X0237451Y0319841D02*
X0131452Y0319841D01*
X0131452Y0320439D02*
X0237451Y0320439D01*
X0237451Y0321038D02*
X0131452Y0321038D01*
X0131452Y0321636D02*
X0237451Y0321636D01*
X0237451Y0322235D02*
X0131452Y0322235D01*
X0131452Y0322833D02*
X0237451Y0322833D01*
X0237451Y0323432D02*
X0131452Y0323432D01*
X0131452Y0324030D02*
X0237451Y0324030D01*
X0237451Y0324629D02*
X0131452Y0324629D01*
X0131452Y0325227D02*
X0237451Y0325227D01*
X0237451Y0325826D02*
X0131452Y0325826D01*
X0131452Y0326424D02*
X0237451Y0326424D01*
X0237451Y0327023D02*
X0131452Y0327023D01*
X0131452Y0327621D02*
X0237451Y0327621D01*
X0237451Y0328220D02*
X0131452Y0328220D01*
X0131452Y0328818D02*
X0237451Y0328818D01*
X0237451Y0329417D02*
X0131452Y0329417D01*
X0131452Y0330015D02*
X0237451Y0330015D01*
X0237451Y0330614D02*
X0131452Y0330614D01*
X0131452Y0331212D02*
X0237451Y0331212D01*
X0237451Y0331811D02*
X0131452Y0331811D01*
X0131452Y0332409D02*
X0237451Y0332409D01*
X0237451Y0333008D02*
X0131452Y0333008D01*
X0131452Y0333606D02*
X0237451Y0333606D01*
X0237451Y0334205D02*
X0131452Y0334205D01*
X0131452Y0334803D02*
X0237451Y0334803D01*
X0237451Y0335402D02*
X0131452Y0335402D01*
X0131452Y0336000D02*
X0237451Y0336000D01*
X0237451Y0336599D02*
X0131452Y0336599D01*
X0131452Y0337197D02*
X0237451Y0337197D01*
X0237451Y0337796D02*
X0131452Y0337796D01*
X0131452Y0338394D02*
X0237451Y0338394D01*
X0237451Y0338993D02*
X0131452Y0338993D01*
X0131452Y0339591D02*
X0237451Y0339591D01*
X0237451Y0340190D02*
X0131452Y0340190D01*
X0131452Y0340788D02*
X0237451Y0340788D01*
X0237451Y0341387D02*
X0131452Y0341387D01*
X0131452Y0341985D02*
X0237451Y0341985D01*
X0237451Y0342584D02*
X0131452Y0342584D01*
X0131452Y0343182D02*
X0237451Y0343182D01*
X0237451Y0343781D02*
X0131452Y0343781D01*
X0131452Y0344380D02*
X0237451Y0344380D01*
X0237451Y0344978D02*
X0131452Y0344978D01*
X0131452Y0345577D02*
X0237451Y0345577D01*
X0237451Y0346175D02*
X0131452Y0346175D01*
X0131452Y0346774D02*
X0237451Y0346774D01*
X0237451Y0347372D02*
X0131452Y0347372D01*
X0131452Y0347971D02*
X0237451Y0347971D01*
X0237451Y0348569D02*
X0131452Y0348569D01*
X0131452Y0349168D02*
X0237451Y0349168D01*
X0237451Y0349766D02*
X0131452Y0349766D01*
X0131452Y0350365D02*
X0237451Y0350365D01*
X0237451Y0350963D02*
X0131452Y0350963D01*
X0131452Y0351562D02*
X0237451Y0351562D01*
X0237451Y0352160D02*
X0131452Y0352160D01*
X0131452Y0352759D02*
X0237451Y0352759D01*
X0237451Y0353357D02*
X0131452Y0353357D01*
X0131452Y0353956D02*
X0237451Y0353956D01*
X0237451Y0354554D02*
X0131452Y0354554D01*
X0131452Y0355153D02*
X0237451Y0355153D01*
X0237451Y0355751D02*
X0131452Y0355751D01*
X0131452Y0356350D02*
X0237451Y0356350D01*
X0237451Y0356948D02*
X0131452Y0356948D01*
X0131452Y0357547D02*
X0237451Y0357547D01*
X0237451Y0358145D02*
X0131452Y0358145D01*
X0131452Y0358744D02*
X0237451Y0358744D01*
X0237451Y0359342D02*
X0131452Y0359342D01*
X0131452Y0359941D02*
X0237451Y0359941D01*
X0237451Y0360539D02*
X0131452Y0360539D01*
X0131452Y0361138D02*
X0237451Y0361138D01*
X0237451Y0361736D02*
X0131452Y0361736D01*
X0131452Y0362335D02*
X0237451Y0362335D01*
X0237451Y0362933D02*
X0131452Y0362933D01*
X0131452Y0363532D02*
X0237451Y0363532D01*
X0237451Y0364130D02*
X0131452Y0364130D01*
X0131452Y0364729D02*
X0237451Y0364729D01*
X0237451Y0365327D02*
X0131452Y0365327D01*
X0131452Y0365926D02*
X0237451Y0365926D01*
X0237451Y0366524D02*
X0131452Y0366524D01*
X0131452Y0367123D02*
X0237451Y0367123D01*
X0237451Y0367721D02*
X0131452Y0367721D01*
X0131452Y0368320D02*
X0237451Y0368320D01*
X0237451Y0368918D02*
X0131452Y0368918D01*
X0131452Y0369517D02*
X0237451Y0369517D01*
X0237451Y0370116D02*
X0131452Y0370116D01*
X0131452Y0370714D02*
X0237451Y0370714D01*
X0237502Y0371313D02*
X0131452Y0371313D01*
X0131452Y0371911D02*
X0312554Y0371911D01*
X0312554Y0371313D02*
X0285245Y0371313D01*
X0285295Y0370714D02*
X0312554Y0370714D01*
X0312554Y0370116D02*
X0285295Y0370116D01*
X0285295Y0369517D02*
X0312554Y0369517D01*
X0312554Y0368918D02*
X0285295Y0368918D01*
X0285295Y0368320D02*
X0312554Y0368320D01*
X0312554Y0367721D02*
X0285295Y0367721D01*
X0285295Y0367123D02*
X0312554Y0367123D01*
X0312554Y0366524D02*
X0285295Y0366524D01*
X0285295Y0365926D02*
X0312554Y0365926D01*
X0312554Y0365327D02*
X0285295Y0365327D01*
X0285295Y0364729D02*
X0312554Y0364729D01*
X0312554Y0364130D02*
X0285295Y0364130D01*
X0285295Y0363532D02*
X0312554Y0363532D01*
X0312554Y0362933D02*
X0285295Y0362933D01*
X0285295Y0362335D02*
X0312554Y0362335D01*
X0312554Y0361736D02*
X0285295Y0361736D01*
X0285295Y0361138D02*
X0312554Y0361138D01*
X0312554Y0360539D02*
X0285295Y0360539D01*
X0285295Y0359941D02*
X0312554Y0359941D01*
X0312554Y0359342D02*
X0285295Y0359342D01*
X0285295Y0358744D02*
X0312554Y0358744D01*
X0312554Y0358145D02*
X0285295Y0358145D01*
X0285295Y0357547D02*
X0312554Y0357547D01*
X0312554Y0356948D02*
X0285295Y0356948D01*
X0285295Y0356350D02*
X0312554Y0356350D01*
X0312554Y0355751D02*
X0285295Y0355751D01*
X0285295Y0355153D02*
X0312554Y0355153D01*
X0312554Y0354554D02*
X0285295Y0354554D01*
X0285295Y0353956D02*
X0312554Y0353956D01*
X0312554Y0353357D02*
X0285295Y0353357D01*
X0285295Y0352759D02*
X0312554Y0352759D01*
X0312554Y0352160D02*
X0285295Y0352160D01*
X0285295Y0351562D02*
X0312554Y0351562D01*
X0312554Y0350963D02*
X0285295Y0350963D01*
X0285295Y0350365D02*
X0312554Y0350365D01*
X0312554Y0349766D02*
X0285295Y0349766D01*
X0285295Y0349168D02*
X0312554Y0349168D01*
X0312554Y0348569D02*
X0285295Y0348569D01*
X0285295Y0347971D02*
X0312554Y0347971D01*
X0312554Y0347372D02*
X0285295Y0347372D01*
X0285295Y0346774D02*
X0312554Y0346774D01*
X0312554Y0346175D02*
X0285295Y0346175D01*
X0285295Y0345577D02*
X0312554Y0345577D01*
X0312554Y0344978D02*
X0285295Y0344978D01*
X0285295Y0344380D02*
X0312554Y0344380D01*
X0312554Y0343781D02*
X0285295Y0343781D01*
X0285295Y0343182D02*
X0312554Y0343182D01*
X0312554Y0342584D02*
X0285295Y0342584D01*
X0285295Y0341985D02*
X0312554Y0341985D01*
X0312554Y0341387D02*
X0285295Y0341387D01*
X0285295Y0340788D02*
X0312554Y0340788D01*
X0312554Y0340190D02*
X0285295Y0340190D01*
X0285295Y0339591D02*
X0312554Y0339591D01*
X0312554Y0338993D02*
X0285295Y0338993D01*
X0285295Y0338394D02*
X0312554Y0338394D01*
X0312554Y0337796D02*
X0285295Y0337796D01*
X0285295Y0337197D02*
X0312554Y0337197D01*
X0312554Y0336599D02*
X0285295Y0336599D01*
X0285295Y0336000D02*
X0312554Y0336000D01*
X0312554Y0335402D02*
X0285295Y0335402D01*
X0285295Y0334803D02*
X0312554Y0334803D01*
X0312554Y0334205D02*
X0285295Y0334205D01*
X0285295Y0333606D02*
X0312554Y0333606D01*
X0312554Y0333008D02*
X0285295Y0333008D01*
X0285295Y0332409D02*
X0312554Y0332409D01*
X0312554Y0331811D02*
X0285295Y0331811D01*
X0285295Y0331212D02*
X0312554Y0331212D01*
X0312554Y0330614D02*
X0285295Y0330614D01*
X0285295Y0330015D02*
X0312554Y0330015D01*
X0312554Y0329417D02*
X0285295Y0329417D01*
X0285295Y0328818D02*
X0312554Y0328818D01*
X0312554Y0328220D02*
X0285295Y0328220D01*
X0285295Y0327621D02*
X0312554Y0327621D01*
X0312554Y0327023D02*
X0285295Y0327023D01*
X0285295Y0326424D02*
X0312554Y0326424D01*
X0312554Y0325826D02*
X0285295Y0325826D01*
X0285295Y0325227D02*
X0312554Y0325227D01*
X0312554Y0324629D02*
X0285295Y0324629D01*
X0285295Y0324030D02*
X0312554Y0324030D01*
X0312554Y0323432D02*
X0285295Y0323432D01*
X0285295Y0322833D02*
X0312554Y0322833D01*
X0312554Y0322235D02*
X0285295Y0322235D01*
X0285295Y0321636D02*
X0312554Y0321636D01*
X0312554Y0321038D02*
X0285295Y0321038D01*
X0285295Y0320439D02*
X0312554Y0320439D01*
X0312554Y0319841D02*
X0285295Y0319841D01*
X0285295Y0319242D02*
X0312554Y0319242D01*
X0312554Y0318644D02*
X0285295Y0318644D01*
X0285295Y0318045D02*
X0312554Y0318045D01*
X0312554Y0317447D02*
X0285295Y0317447D01*
X0285295Y0316848D02*
X0312554Y0316848D01*
X0312554Y0316249D02*
X0285295Y0316249D01*
X0285295Y0315651D02*
X0312554Y0315651D01*
X0312554Y0315052D02*
X0285295Y0315052D01*
X0285295Y0314454D02*
X0312554Y0314454D01*
X0312554Y0313855D02*
X0285295Y0313855D01*
X0285295Y0313257D02*
X0312554Y0313257D01*
X0312554Y0312658D02*
X0285295Y0312658D01*
X0285295Y0312060D02*
X0312554Y0312060D01*
X0312554Y0311461D02*
X0285295Y0311461D01*
X0285295Y0310863D02*
X0312554Y0310863D01*
X0312554Y0310264D02*
X0285295Y0310264D01*
X0285295Y0309666D02*
X0312554Y0309666D01*
X0312554Y0309067D02*
X0285295Y0309067D01*
X0285295Y0308469D02*
X0312554Y0308469D01*
X0312554Y0307870D02*
X0285295Y0307870D01*
X0285295Y0307272D02*
X0312554Y0307272D01*
X0312554Y0306673D02*
X0285295Y0306673D01*
X0285295Y0306075D02*
X0312554Y0306075D01*
X0312554Y0305476D02*
X0285295Y0305476D01*
X0285295Y0304878D02*
X0312554Y0304878D01*
X0312554Y0304279D02*
X0285295Y0304279D01*
X0285295Y0303681D02*
X0312554Y0303681D01*
X0312554Y0303082D02*
X0285295Y0303082D01*
X0285295Y0302484D02*
X0312554Y0302484D01*
X0312554Y0301885D02*
X0285295Y0301885D01*
X0285295Y0301287D02*
X0312554Y0301287D01*
X0312554Y0300688D02*
X0285295Y0300688D01*
X0285295Y0300090D02*
X0312554Y0300090D01*
X0312554Y0299491D02*
X0285295Y0299491D01*
X0285295Y0298893D02*
X0312554Y0298893D01*
X0312554Y0298294D02*
X0285295Y0298294D01*
X0285295Y0297696D02*
X0312554Y0297696D01*
X0312554Y0297097D02*
X0285295Y0297097D01*
X0285295Y0296499D02*
X0312554Y0296499D01*
X0312554Y0295900D02*
X0285295Y0295900D01*
X0285295Y0295302D02*
X0312554Y0295302D01*
X0312554Y0294703D02*
X0285295Y0294703D01*
X0285295Y0294105D02*
X0312554Y0294105D01*
X0312554Y0293506D02*
X0285295Y0293506D01*
X0285295Y0292908D02*
X0312554Y0292908D01*
X0312554Y0292309D02*
X0285295Y0292309D01*
X0285295Y0291711D02*
X0312554Y0291711D01*
X0312554Y0291112D02*
X0285295Y0291112D01*
X0285295Y0290513D02*
X0312554Y0290513D01*
X0312554Y0289915D02*
X0285295Y0289915D01*
X0285295Y0289316D02*
X0312554Y0289316D01*
X0312554Y0288718D02*
X0285295Y0288718D01*
X0285295Y0288119D02*
X0312554Y0288119D01*
X0312554Y0287521D02*
X0285295Y0287521D01*
X0285295Y0286922D02*
X0312554Y0286922D01*
X0312554Y0286324D02*
X0285295Y0286324D01*
X0285295Y0285725D02*
X0312554Y0285725D01*
X0312554Y0285127D02*
X0285295Y0285127D01*
X0285295Y0284528D02*
X0312554Y0284528D01*
X0312554Y0283930D02*
X0285295Y0283930D01*
X0285295Y0283331D02*
X0312554Y0283331D01*
X0312554Y0282733D02*
X0285295Y0282733D01*
X0285295Y0282134D02*
X0312554Y0282134D01*
X0312554Y0281536D02*
X0285295Y0281536D01*
X0285295Y0280937D02*
X0312554Y0280937D01*
X0312554Y0280339D02*
X0285295Y0280339D01*
X0285295Y0279740D02*
X0312554Y0279740D01*
X0312554Y0279142D02*
X0285295Y0279142D01*
X0285295Y0278543D02*
X0312554Y0278543D01*
X0312554Y0277945D02*
X0285295Y0277945D01*
X0285295Y0277346D02*
X0312554Y0277346D01*
X0312554Y0276748D02*
X0285295Y0276748D01*
X0285295Y0276149D02*
X0312554Y0276149D01*
X0312554Y0275551D02*
X0285295Y0275551D01*
X0285295Y0274952D02*
X0312554Y0274952D01*
X0312554Y0274354D02*
X0285295Y0274354D01*
X0285295Y0273755D02*
X0312554Y0273755D01*
X0312554Y0273157D02*
X0285295Y0273157D01*
X0285265Y0272558D02*
X0312541Y0272558D01*
X0312554Y0372510D02*
X0131452Y0372510D01*
X0131452Y0373108D02*
X0312554Y0373108D01*
X0312554Y0373707D02*
X0131452Y0373707D01*
X0131452Y0374305D02*
X0312554Y0374305D01*
X0312554Y0374904D02*
X0131452Y0374904D01*
X0131452Y0375502D02*
X0312554Y0375502D01*
X0312554Y0376101D02*
X0131452Y0376101D01*
X0131452Y0376699D02*
X0312554Y0376699D01*
X0312554Y0377298D02*
X0131452Y0377298D01*
X0131452Y0377896D02*
X0312554Y0377896D01*
X0312554Y0378495D02*
X0131452Y0378495D01*
X0131452Y0379093D02*
X0312554Y0379093D01*
X0312554Y0379692D02*
X0131452Y0379692D01*
X0131452Y0380290D02*
X0312554Y0380290D01*
X0312554Y0380889D02*
X0131452Y0380889D01*
X0131452Y0381487D02*
X0312554Y0381487D01*
X0312554Y0382086D02*
X0131452Y0382086D01*
X0060586Y0355390D02*
X0068460Y0335705D01*
X0064523Y0335705D01*
X0064523Y0327831D01*
X0056649Y0327831D01*
X0056649Y0335705D01*
X0052712Y0335705D01*
X0060586Y0355390D01*
X0367673Y0071925D02*
X0387358Y0071925D01*
X0387358Y0056177D01*
X0367673Y0056177D01*
X0367673Y0071925D01*
X0367673Y0071458D02*
X0387358Y0071458D01*
X0387358Y0070860D02*
X0367673Y0070860D01*
X0367673Y0070261D02*
X0387358Y0070261D01*
X0387358Y0069663D02*
X0385689Y0069663D01*
X0385689Y0070081D02*
X0385513Y0070257D01*
X0369517Y0070257D01*
X0369341Y0070081D01*
X0369341Y0058021D01*
X0369517Y0057846D01*
X0385513Y0057846D01*
X0385689Y0058021D01*
X0385689Y0070081D01*
X0385689Y0069064D02*
X0387358Y0069064D01*
X0387358Y0068466D02*
X0385689Y0068466D01*
X0385689Y0067867D02*
X0387358Y0067867D01*
X0387358Y0067269D02*
X0385689Y0067269D01*
X0385689Y0066670D02*
X0387358Y0066670D01*
X0387358Y0066072D02*
X0385689Y0066072D01*
X0385689Y0065473D02*
X0387358Y0065473D01*
X0387358Y0064875D02*
X0385689Y0064875D01*
X0385689Y0064276D02*
X0387358Y0064276D01*
X0387358Y0063678D02*
X0385689Y0063678D01*
X0385689Y0063079D02*
X0387358Y0063079D01*
X0387358Y0062481D02*
X0385689Y0062481D01*
X0385689Y0061882D02*
X0387358Y0061882D01*
X0387358Y0061284D02*
X0385689Y0061284D01*
X0385689Y0060685D02*
X0387358Y0060685D01*
X0387358Y0060087D02*
X0385689Y0060087D01*
X0385689Y0059488D02*
X0387358Y0059488D01*
X0387358Y0058890D02*
X0385689Y0058890D01*
X0385689Y0058291D02*
X0387358Y0058291D01*
X0387358Y0057693D02*
X0367673Y0057693D01*
X0367673Y0058291D02*
X0369341Y0058291D01*
X0369341Y0058890D02*
X0367673Y0058890D01*
X0367673Y0059488D02*
X0369341Y0059488D01*
X0369341Y0060087D02*
X0367673Y0060087D01*
X0367673Y0060685D02*
X0369341Y0060685D01*
X0369341Y0061284D02*
X0367673Y0061284D01*
X0367673Y0061882D02*
X0369341Y0061882D01*
X0369341Y0062481D02*
X0367673Y0062481D01*
X0367673Y0063079D02*
X0369341Y0063079D01*
X0369341Y0063678D02*
X0367673Y0063678D01*
X0367673Y0064276D02*
X0369341Y0064276D01*
X0369341Y0064875D02*
X0367673Y0064875D01*
X0367673Y0065473D02*
X0369341Y0065473D01*
X0369341Y0066072D02*
X0367673Y0066072D01*
X0367673Y0066670D02*
X0369341Y0066670D01*
X0369341Y0067269D02*
X0367673Y0067269D01*
X0367673Y0067867D02*
X0369341Y0067867D01*
X0369341Y0068466D02*
X0367673Y0068466D01*
X0367673Y0069064D02*
X0369341Y0069064D01*
X0369341Y0069663D02*
X0367673Y0069663D01*
X0367673Y0057094D02*
X0387358Y0057094D01*
X0387358Y0056496D02*
X0367673Y0056496D01*
D11*
X0359798Y0032555D02*
X0359798Y0235311D01*
X0359799Y0235311D02*
X0359797Y0235463D01*
X0359791Y0235615D01*
X0359781Y0235767D01*
X0359768Y0235918D01*
X0359750Y0236069D01*
X0359729Y0236220D01*
X0359703Y0236370D01*
X0359674Y0236519D01*
X0359641Y0236668D01*
X0359604Y0236815D01*
X0359564Y0236962D01*
X0359519Y0237107D01*
X0359471Y0237251D01*
X0359419Y0237394D01*
X0359364Y0237536D01*
X0359305Y0237676D01*
X0359242Y0237815D01*
X0359176Y0237952D01*
X0359106Y0238087D01*
X0359033Y0238220D01*
X0358956Y0238351D01*
X0358876Y0238481D01*
X0358793Y0238608D01*
X0358707Y0238733D01*
X0358617Y0238856D01*
X0358524Y0238976D01*
X0358428Y0239094D01*
X0358329Y0239210D01*
X0358227Y0239323D01*
X0358123Y0239433D01*
X0358015Y0239541D01*
X0357905Y0239645D01*
X0357792Y0239747D01*
X0357676Y0239846D01*
X0357558Y0239942D01*
X0357438Y0240035D01*
X0357315Y0240125D01*
X0357190Y0240211D01*
X0357063Y0240294D01*
X0356933Y0240374D01*
X0356802Y0240451D01*
X0356669Y0240524D01*
X0356534Y0240594D01*
X0356397Y0240660D01*
X0356258Y0240723D01*
X0356118Y0240782D01*
X0355976Y0240837D01*
X0355833Y0240889D01*
X0355689Y0240937D01*
X0355544Y0240982D01*
X0355397Y0241022D01*
X0355250Y0241059D01*
X0355101Y0241092D01*
X0354952Y0241121D01*
X0354802Y0241147D01*
X0354651Y0241168D01*
X0354500Y0241186D01*
X0354349Y0241199D01*
X0354197Y0241209D01*
X0354045Y0241215D01*
X0353893Y0241217D01*
X0084208Y0241217D01*
X0084018Y0241215D01*
X0083828Y0241208D01*
X0083638Y0241196D01*
X0083448Y0241180D01*
X0083259Y0241160D01*
X0083070Y0241134D01*
X0082882Y0241105D01*
X0082695Y0241070D01*
X0082509Y0241031D01*
X0082324Y0240988D01*
X0082139Y0240940D01*
X0081956Y0240888D01*
X0081775Y0240832D01*
X0081595Y0240771D01*
X0081416Y0240705D01*
X0081239Y0240636D01*
X0081063Y0240562D01*
X0080890Y0240484D01*
X0080718Y0240401D01*
X0080549Y0240315D01*
X0080381Y0240225D01*
X0080216Y0240130D01*
X0080053Y0240032D01*
X0079893Y0239929D01*
X0079735Y0239823D01*
X0079580Y0239713D01*
X0079427Y0239600D01*
X0079277Y0239482D01*
X0079131Y0239361D01*
X0078987Y0239237D01*
X0078846Y0239109D01*
X0078708Y0238978D01*
X0078573Y0238843D01*
X0078442Y0238705D01*
X0078314Y0238564D01*
X0078190Y0238420D01*
X0078069Y0238274D01*
X0077951Y0238124D01*
X0077838Y0237971D01*
X0077728Y0237816D01*
X0077622Y0237658D01*
X0077519Y0237498D01*
X0077421Y0237335D01*
X0077326Y0237170D01*
X0077236Y0237002D01*
X0077150Y0236833D01*
X0077067Y0236661D01*
X0076989Y0236488D01*
X0076915Y0236312D01*
X0076846Y0236135D01*
X0076780Y0235956D01*
X0076719Y0235776D01*
X0076663Y0235595D01*
X0076611Y0235412D01*
X0076563Y0235227D01*
X0076520Y0235042D01*
X0076481Y0234856D01*
X0076446Y0234669D01*
X0076417Y0234481D01*
X0076391Y0234292D01*
X0076371Y0234103D01*
X0076355Y0233913D01*
X0076343Y0233723D01*
X0076336Y0233533D01*
X0076334Y0233343D01*
X0076334Y0032555D01*
X0084208Y0264839D02*
X0308617Y0264839D01*
X0308807Y0264841D01*
X0308997Y0264848D01*
X0309187Y0264860D01*
X0309377Y0264876D01*
X0309566Y0264896D01*
X0309755Y0264922D01*
X0309943Y0264951D01*
X0310130Y0264986D01*
X0310316Y0265025D01*
X0310501Y0265068D01*
X0310686Y0265116D01*
X0310869Y0265168D01*
X0311050Y0265224D01*
X0311230Y0265285D01*
X0311409Y0265351D01*
X0311586Y0265420D01*
X0311762Y0265494D01*
X0311935Y0265572D01*
X0312107Y0265655D01*
X0312276Y0265741D01*
X0312444Y0265831D01*
X0312609Y0265926D01*
X0312772Y0266024D01*
X0312932Y0266127D01*
X0313090Y0266233D01*
X0313245Y0266343D01*
X0313398Y0266456D01*
X0313548Y0266574D01*
X0313694Y0266695D01*
X0313838Y0266819D01*
X0313979Y0266947D01*
X0314117Y0267078D01*
X0314252Y0267213D01*
X0314383Y0267351D01*
X0314511Y0267492D01*
X0314635Y0267636D01*
X0314756Y0267782D01*
X0314874Y0267932D01*
X0314987Y0268085D01*
X0315097Y0268240D01*
X0315203Y0268398D01*
X0315306Y0268558D01*
X0315404Y0268721D01*
X0315499Y0268886D01*
X0315589Y0269054D01*
X0315675Y0269223D01*
X0315758Y0269395D01*
X0315836Y0269568D01*
X0315910Y0269744D01*
X0315979Y0269921D01*
X0316045Y0270100D01*
X0316106Y0270280D01*
X0316162Y0270461D01*
X0316214Y0270644D01*
X0316262Y0270829D01*
X0316305Y0271014D01*
X0316344Y0271200D01*
X0316379Y0271387D01*
X0316408Y0271575D01*
X0316434Y0271764D01*
X0316454Y0271953D01*
X0316470Y0272143D01*
X0316482Y0272333D01*
X0316489Y0272523D01*
X0316491Y0272713D01*
X0316491Y0386886D01*
X0084208Y0264839D02*
X0084018Y0264841D01*
X0083828Y0264848D01*
X0083638Y0264860D01*
X0083448Y0264876D01*
X0083259Y0264896D01*
X0083070Y0264922D01*
X0082882Y0264951D01*
X0082695Y0264986D01*
X0082509Y0265025D01*
X0082324Y0265068D01*
X0082139Y0265116D01*
X0081956Y0265168D01*
X0081775Y0265224D01*
X0081595Y0265285D01*
X0081416Y0265351D01*
X0081239Y0265420D01*
X0081063Y0265494D01*
X0080890Y0265572D01*
X0080718Y0265655D01*
X0080549Y0265741D01*
X0080381Y0265831D01*
X0080216Y0265926D01*
X0080053Y0266024D01*
X0079893Y0266127D01*
X0079735Y0266233D01*
X0079580Y0266343D01*
X0079427Y0266456D01*
X0079277Y0266574D01*
X0079131Y0266695D01*
X0078987Y0266819D01*
X0078846Y0266947D01*
X0078708Y0267078D01*
X0078573Y0267213D01*
X0078442Y0267351D01*
X0078314Y0267492D01*
X0078190Y0267636D01*
X0078069Y0267782D01*
X0077951Y0267932D01*
X0077838Y0268085D01*
X0077728Y0268240D01*
X0077622Y0268398D01*
X0077519Y0268558D01*
X0077421Y0268721D01*
X0077326Y0268886D01*
X0077236Y0269054D01*
X0077150Y0269223D01*
X0077067Y0269395D01*
X0076989Y0269568D01*
X0076915Y0269744D01*
X0076846Y0269921D01*
X0076780Y0270100D01*
X0076719Y0270280D01*
X0076663Y0270461D01*
X0076611Y0270644D01*
X0076563Y0270829D01*
X0076520Y0271014D01*
X0076481Y0271200D01*
X0076446Y0271387D01*
X0076417Y0271575D01*
X0076391Y0271764D01*
X0076371Y0271953D01*
X0076355Y0272143D01*
X0076343Y0272333D01*
X0076336Y0272523D01*
X0076334Y0272713D01*
X0076334Y0386886D01*
M02*
